<mxfile host="app.diagrams.net" agent="Mozilla/5.0 (Windows NT 10.0; Win64; x64) AppleWebKit/537.36 (KHTML, like Gecko) Chrome/137.0.0.0 Safari/537.36" version="27.1.4">
  <diagram name="Page-1" id="NuWAM09Bmnfk2uYtSm03">
    <mxGraphModel dx="2194" dy="1195" grid="1" gridSize="10" guides="1" tooltips="1" connect="1" arrows="1" fold="1" page="1" pageScale="1" pageWidth="827" pageHeight="1169" math="0" shadow="0">
      <root>
        <mxCell id="0" />
        <mxCell id="1" parent="0" />
        <mxCell id="nZW0ntro5RyZMnnmfriX-116" value="" style="rounded=0;whiteSpace=wrap;html=1;fillColor=#dae8fc;strokeColor=#6c8ebf;" parent="1" vertex="1">
          <mxGeometry x="215.5" y="1849.32" width="340" height="580" as="geometry" />
        </mxCell>
        <mxCell id="nZW0ntro5RyZMnnmfriX-150" style="rounded=0;orthogonalLoop=1;jettySize=auto;html=1;entryX=0;entryY=0.5;entryDx=0;entryDy=0;exitX=1;exitY=0.3333333333333333;exitDx=0;exitDy=0;exitPerimeter=0;endArrow=none;startFill=0;" parent="1" source="nZW0ntro5RyZMnnmfriX-144" target="nZW0ntro5RyZMnnmfriX-102" edge="1">
          <mxGeometry relative="1" as="geometry" />
        </mxCell>
        <mxCell id="nZW0ntro5RyZMnnmfriX-2" value="&lt;font style=&quot;font-size: 23px;&quot;&gt;Use case Diagram&lt;/font&gt;" style="text;html=1;align=center;verticalAlign=middle;whiteSpace=wrap;rounded=0;" parent="1" vertex="1">
          <mxGeometry x="309" y="10" width="210" height="30" as="geometry" />
        </mxCell>
        <mxCell id="nZW0ntro5RyZMnnmfriX-5" value="" style="rounded=0;whiteSpace=wrap;html=1;fillColor=#dae8fc;strokeColor=#6c8ebf;" parent="1" vertex="1">
          <mxGeometry x="758.5" y="130" width="140" height="345" as="geometry" />
        </mxCell>
        <mxCell id="nZW0ntro5RyZMnnmfriX-8" value="&lt;div&gt;BDD&lt;/div&gt;" style="shape=umlActor;verticalLabelPosition=bottom;verticalAlign=top;html=1;outlineConnect=0;" parent="1" vertex="1">
          <mxGeometry x="988.5" y="272.5" width="30" height="60" as="geometry" />
        </mxCell>
        <mxCell id="nZW0ntro5RyZMnnmfriX-9" value="Login" style="ellipse;whiteSpace=wrap;html=1;fillColor=#fff2cc;strokeColor=#d6b656;" parent="1" vertex="1">
          <mxGeometry x="786" y="182.5" width="85" height="38.64" as="geometry" />
        </mxCell>
        <mxCell id="nZW0ntro5RyZMnnmfriX-12" value="Lessons" style="ellipse;whiteSpace=wrap;html=1;fillColor=#fff2cc;strokeColor=#d6b656;" parent="1" vertex="1">
          <mxGeometry x="786" y="272.5" width="85" height="38.64" as="geometry" />
        </mxCell>
        <mxCell id="nZW0ntro5RyZMnnmfriX-13" value="Exercices" style="ellipse;whiteSpace=wrap;html=1;fillColor=#fff2cc;strokeColor=#d6b656;" parent="1" vertex="1">
          <mxGeometry x="786" y="353.18" width="85" height="38.64" as="geometry" />
        </mxCell>
        <mxCell id="nZW0ntro5RyZMnnmfriX-14" style="rounded=0;orthogonalLoop=1;jettySize=auto;html=1;endArrow=none;startFill=0;exitX=1;exitY=0.3333333333333333;exitDx=0;exitDy=0;exitPerimeter=0;" parent="1" source="nZW0ntro5RyZMnnmfriX-1" target="nZW0ntro5RyZMnnmfriX-9" edge="1">
          <mxGeometry relative="1" as="geometry">
            <mxPoint x="668.5" y="242.5" as="sourcePoint" />
          </mxGeometry>
        </mxCell>
        <mxCell id="nZW0ntro5RyZMnnmfriX-15" style="rounded=0;orthogonalLoop=1;jettySize=auto;html=1;endArrow=none;startFill=0;exitX=1;exitY=0.3333333333333333;exitDx=0;exitDy=0;exitPerimeter=0;" parent="1" source="nZW0ntro5RyZMnnmfriX-1" target="nZW0ntro5RyZMnnmfriX-12" edge="1">
          <mxGeometry relative="1" as="geometry">
            <mxPoint x="648.5" y="222.5" as="sourcePoint" />
          </mxGeometry>
        </mxCell>
        <mxCell id="nZW0ntro5RyZMnnmfriX-16" style="rounded=0;orthogonalLoop=1;jettySize=auto;html=1;entryX=0;entryY=0.5;entryDx=0;entryDy=0;endArrow=none;startFill=0;exitX=1;exitY=0.3333333333333333;exitDx=0;exitDy=0;exitPerimeter=0;" parent="1" source="nZW0ntro5RyZMnnmfriX-1" target="nZW0ntro5RyZMnnmfriX-13" edge="1">
          <mxGeometry relative="1" as="geometry">
            <mxPoint x="668.5" y="242.5" as="sourcePoint" />
          </mxGeometry>
        </mxCell>
        <mxCell id="nZW0ntro5RyZMnnmfriX-1" value="&lt;div&gt;User&lt;/div&gt;" style="shape=umlActor;verticalLabelPosition=bottom;verticalAlign=top;html=1;outlineConnect=0;" parent="1" vertex="1">
          <mxGeometry x="638.5" y="293.18" width="30" height="60" as="geometry" />
        </mxCell>
        <mxCell id="nZW0ntro5RyZMnnmfriX-17" style="rounded=0;orthogonalLoop=1;jettySize=auto;html=1;endArrow=none;startFill=0;entryX=1;entryY=0.5;entryDx=0;entryDy=0;exitX=0;exitY=0.3333333333333333;exitDx=0;exitDy=0;exitPerimeter=0;" parent="1" source="nZW0ntro5RyZMnnmfriX-8" target="nZW0ntro5RyZMnnmfriX-9" edge="1">
          <mxGeometry relative="1" as="geometry">
            <mxPoint x="998.5" y="282.5" as="sourcePoint" />
            <mxPoint x="821.5" y="282.5" as="targetPoint" />
          </mxGeometry>
        </mxCell>
        <mxCell id="nZW0ntro5RyZMnnmfriX-18" style="rounded=0;orthogonalLoop=1;jettySize=auto;html=1;endArrow=none;startFill=0;entryX=1;entryY=0.5;entryDx=0;entryDy=0;exitX=0;exitY=0.3333333333333333;exitDx=0;exitDy=0;exitPerimeter=0;" parent="1" source="nZW0ntro5RyZMnnmfriX-8" target="nZW0ntro5RyZMnnmfriX-12" edge="1">
          <mxGeometry relative="1" as="geometry">
            <mxPoint x="998.5" y="282.5" as="sourcePoint" />
            <mxPoint x="823.5" y="352.5" as="targetPoint" />
          </mxGeometry>
        </mxCell>
        <mxCell id="nZW0ntro5RyZMnnmfriX-19" style="rounded=0;orthogonalLoop=1;jettySize=auto;html=1;entryX=1;entryY=0.5;entryDx=0;entryDy=0;endArrow=none;startFill=0;exitX=0;exitY=0.3333333333333333;exitDx=0;exitDy=0;exitPerimeter=0;" parent="1" source="nZW0ntro5RyZMnnmfriX-8" target="nZW0ntro5RyZMnnmfriX-13" edge="1">
          <mxGeometry relative="1" as="geometry">
            <mxPoint x="698.5" y="313.5" as="sourcePoint" />
            <mxPoint x="816.5" y="443.5" as="targetPoint" />
          </mxGeometry>
        </mxCell>
        <mxCell id="nZW0ntro5RyZMnnmfriX-20" value="" style="rounded=0;whiteSpace=wrap;html=1;fillColor=#dae8fc;strokeColor=#6c8ebf;" parent="1" vertex="1">
          <mxGeometry x="221" y="530" width="370" height="435.68" as="geometry" />
        </mxCell>
        <mxCell id="nZW0ntro5RyZMnnmfriX-40" style="rounded=0;orthogonalLoop=1;jettySize=auto;html=1;entryX=1;entryY=0.5;entryDx=0;entryDy=0;endArrow=none;startFill=0;exitX=0;exitY=0.3333333333333333;exitDx=0;exitDy=0;exitPerimeter=0;" parent="1" source="nZW0ntro5RyZMnnmfriX-21" target="nZW0ntro5RyZMnnmfriX-36" edge="1">
          <mxGeometry relative="1" as="geometry" />
        </mxCell>
        <mxCell id="nZW0ntro5RyZMnnmfriX-46" style="rounded=0;orthogonalLoop=1;jettySize=auto;html=1;entryX=1;entryY=0.5;entryDx=0;entryDy=0;endArrow=none;startFill=0;exitX=0;exitY=0.3333333333333333;exitDx=0;exitDy=0;exitPerimeter=0;" parent="1" source="nZW0ntro5RyZMnnmfriX-21" target="nZW0ntro5RyZMnnmfriX-24" edge="1">
          <mxGeometry relative="1" as="geometry" />
        </mxCell>
        <mxCell id="nZW0ntro5RyZMnnmfriX-21" value="&lt;div&gt;BDD&lt;/div&gt;" style="shape=umlActor;verticalLabelPosition=bottom;verticalAlign=top;html=1;outlineConnect=0;" parent="1" vertex="1">
          <mxGeometry x="660" y="784.32" width="30" height="60" as="geometry" />
        </mxCell>
        <mxCell id="nZW0ntro5RyZMnnmfriX-49" style="rounded=0;orthogonalLoop=1;jettySize=auto;html=1;endArrow=none;startFill=0;exitX=1;exitY=0.3333333333333333;exitDx=0;exitDy=0;exitPerimeter=0;" parent="1" source="nZW0ntro5RyZMnnmfriX-22" target="nZW0ntro5RyZMnnmfriX-28" edge="1">
          <mxGeometry relative="1" as="geometry" />
        </mxCell>
        <mxCell id="nZW0ntro5RyZMnnmfriX-53" style="rounded=0;orthogonalLoop=1;jettySize=auto;html=1;entryX=0;entryY=0.5;entryDx=0;entryDy=0;exitX=1;exitY=0.3333333333333333;exitDx=0;exitDy=0;exitPerimeter=0;endArrow=none;startFill=0;" parent="1" source="nZW0ntro5RyZMnnmfriX-22" target="nZW0ntro5RyZMnnmfriX-24" edge="1">
          <mxGeometry relative="1" as="geometry" />
        </mxCell>
        <mxCell id="nZW0ntro5RyZMnnmfriX-22" value="&lt;div&gt;User&lt;/div&gt;" style="shape=umlActor;verticalLabelPosition=bottom;verticalAlign=top;html=1;outlineConnect=0;" parent="1" vertex="1">
          <mxGeometry x="151" y="717.84" width="30" height="60" as="geometry" />
        </mxCell>
        <mxCell id="nZW0ntro5RyZMnnmfriX-33" style="rounded=0;orthogonalLoop=1;jettySize=auto;html=1;exitX=0;exitY=1;exitDx=0;exitDy=0;dashed=1;" parent="1" source="nZW0ntro5RyZMnnmfriX-32" target="nZW0ntro5RyZMnnmfriX-24" edge="1">
          <mxGeometry relative="1" as="geometry" />
        </mxCell>
        <mxCell id="nZW0ntro5RyZMnnmfriX-34" value="Extends" style="edgeLabel;html=1;align=center;verticalAlign=middle;resizable=0;points=[];" parent="nZW0ntro5RyZMnnmfriX-33" vertex="1" connectable="0">
          <mxGeometry x="0.0847" relative="1" as="geometry">
            <mxPoint as="offset" />
          </mxGeometry>
        </mxCell>
        <mxCell id="nZW0ntro5RyZMnnmfriX-24" value="Login" style="ellipse;whiteSpace=wrap;html=1;fillColor=#fff2cc;strokeColor=#d6b656;" parent="1" vertex="1">
          <mxGeometry x="321" y="882.84" width="85" height="38.64" as="geometry" />
        </mxCell>
        <mxCell id="YOUpktUxaB1BnOb7g7wJ-4" style="rounded=0;orthogonalLoop=1;jettySize=auto;html=1;exitX=0.5;exitY=1;exitDx=0;exitDy=0;" edge="1" parent="1" source="nZW0ntro5RyZMnnmfriX-28" target="nZW0ntro5RyZMnnmfriX-24">
          <mxGeometry relative="1" as="geometry" />
        </mxCell>
        <mxCell id="YOUpktUxaB1BnOb7g7wJ-5" value="Include" style="edgeLabel;html=1;align=center;verticalAlign=middle;resizable=0;points=[];" vertex="1" connectable="0" parent="YOUpktUxaB1BnOb7g7wJ-4">
          <mxGeometry x="0.0156" relative="1" as="geometry">
            <mxPoint as="offset" />
          </mxGeometry>
        </mxCell>
        <mxCell id="nZW0ntro5RyZMnnmfriX-28" value="Create Account" style="ellipse;whiteSpace=wrap;html=1;fillColor=#fff2cc;strokeColor=#d6b656;" parent="1" vertex="1">
          <mxGeometry x="232.5" y="680" width="130" height="48.64" as="geometry" />
        </mxCell>
        <mxCell id="nZW0ntro5RyZMnnmfriX-31" value="&lt;font style=&quot;font-size: 10px;&quot;&gt;{if user don&#39;t have an account}&lt;/font&gt;" style="text;html=1;align=center;verticalAlign=middle;whiteSpace=wrap;rounded=0;" parent="1" vertex="1">
          <mxGeometry x="241" y="631.48" width="90" height="30" as="geometry" />
        </mxCell>
        <mxCell id="nZW0ntro5RyZMnnmfriX-32" value="Go to homepage" style="ellipse;whiteSpace=wrap;html=1;fillColor=#fff2cc;strokeColor=#d6b656;" parent="1" vertex="1">
          <mxGeometry x="406" y="592.84" width="85" height="38.64" as="geometry" />
        </mxCell>
        <mxCell id="nZW0ntro5RyZMnnmfriX-35" value="&lt;font style=&quot;font-size: 10px;&quot;&gt;{if user entered correct credentials}&lt;/font&gt;" style="text;html=1;align=center;verticalAlign=middle;whiteSpace=wrap;rounded=0;" parent="1" vertex="1">
          <mxGeometry x="411" y="557.84" width="90" height="30" as="geometry" />
        </mxCell>
        <mxCell id="nZW0ntro5RyZMnnmfriX-38" style="rounded=0;orthogonalLoop=1;jettySize=auto;html=1;entryX=1;entryY=0;entryDx=0;entryDy=0;dashed=1;" parent="1" source="nZW0ntro5RyZMnnmfriX-36" target="nZW0ntro5RyZMnnmfriX-24" edge="1">
          <mxGeometry relative="1" as="geometry" />
        </mxCell>
        <mxCell id="nZW0ntro5RyZMnnmfriX-39" value="Extends" style="edgeLabel;html=1;align=center;verticalAlign=middle;resizable=0;points=[];" parent="nZW0ntro5RyZMnnmfriX-38" vertex="1" connectable="0">
          <mxGeometry x="-0.0873" relative="1" as="geometry">
            <mxPoint as="offset" />
          </mxGeometry>
        </mxCell>
        <mxCell id="nZW0ntro5RyZMnnmfriX-36" value="Show Error Message" style="ellipse;whiteSpace=wrap;html=1;fillColor=#fff2cc;strokeColor=#d6b656;" parent="1" vertex="1">
          <mxGeometry x="461" y="795.0000000000001" width="85" height="38.64" as="geometry" />
        </mxCell>
        <mxCell id="nZW0ntro5RyZMnnmfriX-37" value="&lt;font style=&quot;font-size: 10px;&quot;&gt;{if user entered wrong credentials}&lt;/font&gt;" style="text;html=1;align=center;verticalAlign=middle;whiteSpace=wrap;rounded=0;" parent="1" vertex="1">
          <mxGeometry x="460" y="765" width="90" height="30" as="geometry" />
        </mxCell>
        <mxCell id="nZW0ntro5RyZMnnmfriX-47" style="rounded=0;orthogonalLoop=1;jettySize=auto;html=1;entryX=1;entryY=0.5;entryDx=0;entryDy=0;endArrow=none;startFill=0;exitX=0;exitY=0.3333333333333333;exitDx=0;exitDy=0;exitPerimeter=0;" parent="1" source="nZW0ntro5RyZMnnmfriX-21" target="nZW0ntro5RyZMnnmfriX-28" edge="1">
          <mxGeometry relative="1" as="geometry">
            <mxPoint x="815" y="812.84" as="sourcePoint" />
            <mxPoint x="591" y="928.84" as="targetPoint" />
          </mxGeometry>
        </mxCell>
        <mxCell id="nZW0ntro5RyZMnnmfriX-45" style="rounded=0;orthogonalLoop=1;jettySize=auto;html=1;entryX=1;entryY=0.5;entryDx=0;entryDy=0;endArrow=none;startFill=0;exitX=0;exitY=0.3333333333333333;exitDx=0;exitDy=0;exitPerimeter=0;" parent="1" source="nZW0ntro5RyZMnnmfriX-42" target="nZW0ntro5RyZMnnmfriX-32" edge="1">
          <mxGeometry relative="1" as="geometry">
            <Array as="points" />
          </mxGeometry>
        </mxCell>
        <mxCell id="nZW0ntro5RyZMnnmfriX-42" value="Router" style="shape=umlActor;verticalLabelPosition=bottom;verticalAlign=top;html=1;outlineConnect=0;" parent="1" vertex="1">
          <mxGeometry x="660" y="631.4800000000001" width="30" height="60" as="geometry" />
        </mxCell>
        <mxCell id="nZW0ntro5RyZMnnmfriX-54" value="&lt;div&gt;User&lt;/div&gt;" style="shape=umlActor;verticalLabelPosition=bottom;verticalAlign=top;html=1;outlineConnect=0;" parent="1" vertex="1">
          <mxGeometry x="33" y="1280" width="30" height="60" as="geometry" />
        </mxCell>
        <mxCell id="nZW0ntro5RyZMnnmfriX-56" value="&lt;div&gt;BDD&lt;/div&gt;" style="shape=umlActor;verticalLabelPosition=bottom;verticalAlign=top;html=1;outlineConnect=0;" parent="1" vertex="1">
          <mxGeometry x="693" y="1219.9999999999998" width="30" height="60" as="geometry" />
        </mxCell>
        <mxCell id="nZW0ntro5RyZMnnmfriX-57" value="" style="rounded=0;whiteSpace=wrap;html=1;fillColor=#dae8fc;strokeColor=#6c8ebf;" parent="1" vertex="1">
          <mxGeometry x="160.5" y="1080" width="502.5" height="520" as="geometry" />
        </mxCell>
        <mxCell id="nZW0ntro5RyZMnnmfriX-79" style="rounded=0;orthogonalLoop=1;jettySize=auto;html=1;endArrow=classic;startFill=0;endFill=1;" parent="1" source="nZW0ntro5RyZMnnmfriX-58" target="nZW0ntro5RyZMnnmfriX-60" edge="1">
          <mxGeometry relative="1" as="geometry" />
        </mxCell>
        <mxCell id="nZW0ntro5RyZMnnmfriX-80" value="Include" style="edgeLabel;html=1;align=center;verticalAlign=middle;resizable=0;points=[];" parent="nZW0ntro5RyZMnnmfriX-79" vertex="1" connectable="0">
          <mxGeometry x="-0.1197" y="2" relative="1" as="geometry">
            <mxPoint as="offset" />
          </mxGeometry>
        </mxCell>
        <mxCell id="nZW0ntro5RyZMnnmfriX-58" value="Lessons" style="ellipse;whiteSpace=wrap;html=1;fillColor=#fff2cc;strokeColor=#d6b656;" parent="1" vertex="1">
          <mxGeometry x="345.5" y="1204.32" width="85" height="38.64" as="geometry" />
        </mxCell>
        <mxCell id="nZW0ntro5RyZMnnmfriX-91" style="rounded=0;orthogonalLoop=1;jettySize=auto;html=1;dashed=1;" parent="1" source="nZW0ntro5RyZMnnmfriX-59" target="nZW0ntro5RyZMnnmfriX-58" edge="1">
          <mxGeometry relative="1" as="geometry" />
        </mxCell>
        <mxCell id="nZW0ntro5RyZMnnmfriX-92" value="Extends" style="edgeLabel;html=1;align=center;verticalAlign=middle;resizable=0;points=[];" parent="nZW0ntro5RyZMnnmfriX-91" vertex="1" connectable="0">
          <mxGeometry x="-0.3952" relative="1" as="geometry">
            <mxPoint as="offset" />
          </mxGeometry>
        </mxCell>
        <mxCell id="nZW0ntro5RyZMnnmfriX-59" value="Create Lesson" style="ellipse;whiteSpace=wrap;html=1;fillColor=#fff2cc;strokeColor=#d6b656;" parent="1" vertex="1">
          <mxGeometry x="253" y="1120.0000000000002" width="85" height="38.64" as="geometry" />
        </mxCell>
        <mxCell id="YOUpktUxaB1BnOb7g7wJ-54" style="rounded=0;orthogonalLoop=1;jettySize=auto;html=1;dashed=1;entryX=1;entryY=0.5;entryDx=0;entryDy=0;" edge="1" parent="1" source="YOUpktUxaB1BnOb7g7wJ-53" target="nZW0ntro5RyZMnnmfriX-64">
          <mxGeometry relative="1" as="geometry" />
        </mxCell>
        <mxCell id="YOUpktUxaB1BnOb7g7wJ-55" value="Extends" style="edgeLabel;html=1;align=center;verticalAlign=middle;resizable=0;points=[];" vertex="1" connectable="0" parent="YOUpktUxaB1BnOb7g7wJ-54">
          <mxGeometry x="-0.323" y="3" relative="1" as="geometry">
            <mxPoint x="-1" y="-5" as="offset" />
          </mxGeometry>
        </mxCell>
        <mxCell id="nZW0ntro5RyZMnnmfriX-60" value="See Lesson" style="ellipse;whiteSpace=wrap;html=1;fillColor=#fff2cc;strokeColor=#d6b656;" parent="1" vertex="1">
          <mxGeometry x="378" y="1390" width="85" height="38.64" as="geometry" />
        </mxCell>
        <mxCell id="nZW0ntro5RyZMnnmfriX-84" style="rounded=0;orthogonalLoop=1;jettySize=auto;html=1;dashed=1;entryX=1;entryY=0.5;entryDx=0;entryDy=0;" parent="1" source="nZW0ntro5RyZMnnmfriX-61" target="nZW0ntro5RyZMnnmfriX-60" edge="1">
          <mxGeometry relative="1" as="geometry" />
        </mxCell>
        <mxCell id="nZW0ntro5RyZMnnmfriX-86" value="Extends" style="edgeLabel;html=1;align=center;verticalAlign=middle;resizable=0;points=[];" parent="nZW0ntro5RyZMnnmfriX-84" vertex="1" connectable="0">
          <mxGeometry x="0.0253" relative="1" as="geometry">
            <mxPoint as="offset" />
          </mxGeometry>
        </mxCell>
        <mxCell id="nZW0ntro5RyZMnnmfriX-61" value="Show next slide" style="ellipse;whiteSpace=wrap;html=1;fillColor=#fff2cc;strokeColor=#d6b656;" parent="1" vertex="1">
          <mxGeometry x="523" y="1420.6799999999998" width="85" height="38.64" as="geometry" />
        </mxCell>
        <mxCell id="nZW0ntro5RyZMnnmfriX-62" value="Show Previous slide" style="ellipse;whiteSpace=wrap;html=1;fillColor=#fff2cc;strokeColor=#d6b656;" parent="1" vertex="1">
          <mxGeometry x="363" y="1512.16" width="115" height="38.64" as="geometry" />
        </mxCell>
        <mxCell id="nZW0ntro5RyZMnnmfriX-82" style="rounded=0;orthogonalLoop=1;jettySize=auto;html=1;" parent="1" source="nZW0ntro5RyZMnnmfriX-60" target="nZW0ntro5RyZMnnmfriX-64" edge="1">
          <mxGeometry relative="1" as="geometry" />
        </mxCell>
        <mxCell id="nZW0ntro5RyZMnnmfriX-83" value="Include" style="edgeLabel;html=1;align=center;verticalAlign=middle;resizable=0;points=[];" parent="nZW0ntro5RyZMnnmfriX-82" vertex="1" connectable="0">
          <mxGeometry x="-0.0062" y="-1" relative="1" as="geometry">
            <mxPoint as="offset" />
          </mxGeometry>
        </mxCell>
        <mxCell id="nZW0ntro5RyZMnnmfriX-64" value="Unlock next lesson" style="ellipse;whiteSpace=wrap;html=1;fillColor=#fff2cc;strokeColor=#d6b656;" parent="1" vertex="1">
          <mxGeometry x="173" y="1290.68" width="93.5" height="38.64" as="geometry" />
        </mxCell>
        <mxCell id="nZW0ntro5RyZMnnmfriX-85" style="rounded=0;orthogonalLoop=1;jettySize=auto;html=1;entryX=1;entryY=1;entryDx=0;entryDy=0;dashed=1;" parent="1" source="nZW0ntro5RyZMnnmfriX-62" target="nZW0ntro5RyZMnnmfriX-60" edge="1">
          <mxGeometry relative="1" as="geometry" />
        </mxCell>
        <mxCell id="nZW0ntro5RyZMnnmfriX-90" value="Extends" style="edgeLabel;html=1;align=center;verticalAlign=middle;resizable=0;points=[];" parent="nZW0ntro5RyZMnnmfriX-85" vertex="1" connectable="0">
          <mxGeometry x="-0.1266" y="-1" relative="1" as="geometry">
            <mxPoint as="offset" />
          </mxGeometry>
        </mxCell>
        <mxCell id="nZW0ntro5RyZMnnmfriX-94" value="Create Lesson" style="ellipse;whiteSpace=wrap;html=1;fillColor=#fff2cc;strokeColor=#d6b656;" parent="1" vertex="1">
          <mxGeometry x="338" y="2169.3199999999997" width="85" height="38.64" as="geometry" />
        </mxCell>
        <mxCell id="nZW0ntro5RyZMnnmfriX-117" style="rounded=0;orthogonalLoop=1;jettySize=auto;html=1;dashed=1;" parent="1" source="nZW0ntro5RyZMnnmfriX-95" target="nZW0ntro5RyZMnnmfriX-94" edge="1">
          <mxGeometry relative="1" as="geometry" />
        </mxCell>
        <mxCell id="nZW0ntro5RyZMnnmfriX-135" value="Extends" style="edgeLabel;html=1;align=center;verticalAlign=middle;resizable=0;points=[];" parent="nZW0ntro5RyZMnnmfriX-117" vertex="1" connectable="0">
          <mxGeometry x="-0.2495" y="-1" relative="1" as="geometry">
            <mxPoint as="offset" />
          </mxGeometry>
        </mxCell>
        <mxCell id="nZW0ntro5RyZMnnmfriX-95" value="Archive Lesson" style="ellipse;whiteSpace=wrap;html=1;fillColor=#fff2cc;strokeColor=#d6b656;" parent="1" vertex="1">
          <mxGeometry x="335.5" y="2269.32" width="85" height="38.64" as="geometry" />
        </mxCell>
        <mxCell id="nZW0ntro5RyZMnnmfriX-118" style="rounded=0;orthogonalLoop=1;jettySize=auto;html=1;dashed=1;" parent="1" source="nZW0ntro5RyZMnnmfriX-96" target="nZW0ntro5RyZMnnmfriX-94" edge="1">
          <mxGeometry relative="1" as="geometry" />
        </mxCell>
        <mxCell id="nZW0ntro5RyZMnnmfriX-134" value="Extends" style="edgeLabel;html=1;align=center;verticalAlign=middle;resizable=0;points=[];" parent="nZW0ntro5RyZMnnmfriX-118" vertex="1" connectable="0">
          <mxGeometry x="-0.2543" y="-2" relative="1" as="geometry">
            <mxPoint as="offset" />
          </mxGeometry>
        </mxCell>
        <mxCell id="nZW0ntro5RyZMnnmfriX-129" style="edgeStyle=orthogonalEdgeStyle;rounded=0;orthogonalLoop=1;jettySize=auto;html=1;dashed=1;" parent="1" source="nZW0ntro5RyZMnnmfriX-98" target="nZW0ntro5RyZMnnmfriX-96" edge="1">
          <mxGeometry relative="1" as="geometry" />
        </mxCell>
        <mxCell id="nZW0ntro5RyZMnnmfriX-133" value="Extends" style="edgeLabel;html=1;align=center;verticalAlign=middle;resizable=0;points=[];" parent="nZW0ntro5RyZMnnmfriX-129" vertex="1" connectable="0">
          <mxGeometry x="-0.1122" relative="1" as="geometry">
            <mxPoint as="offset" />
          </mxGeometry>
        </mxCell>
        <mxCell id="nZW0ntro5RyZMnnmfriX-96" value="Suggest Lesson" style="ellipse;whiteSpace=wrap;html=1;fillColor=#fff2cc;strokeColor=#d6b656;" parent="1" vertex="1">
          <mxGeometry x="338" y="2099.32" width="85" height="38.64" as="geometry" />
        </mxCell>
        <mxCell id="nZW0ntro5RyZMnnmfriX-97" value="Publish Lesson" style="ellipse;whiteSpace=wrap;html=1;fillColor=#fff2cc;strokeColor=#d6b656;" parent="1" vertex="1">
          <mxGeometry x="335.5" y="1944.6799999999998" width="85" height="38.64" as="geometry" />
        </mxCell>
        <mxCell id="nZW0ntro5RyZMnnmfriX-121" style="rounded=0;orthogonalLoop=1;jettySize=auto;html=1;" parent="1" source="nZW0ntro5RyZMnnmfriX-98" target="nZW0ntro5RyZMnnmfriX-97" edge="1">
          <mxGeometry relative="1" as="geometry" />
        </mxCell>
        <mxCell id="nZW0ntro5RyZMnnmfriX-138" value="Includes" style="edgeLabel;html=1;align=center;verticalAlign=middle;resizable=0;points=[];" parent="nZW0ntro5RyZMnnmfriX-121" vertex="1" connectable="0">
          <mxGeometry x="-0.0492" relative="1" as="geometry">
            <mxPoint as="offset" />
          </mxGeometry>
        </mxCell>
        <mxCell id="nZW0ntro5RyZMnnmfriX-98" value="Vote a Lesson" style="ellipse;whiteSpace=wrap;html=1;fillColor=#fff2cc;strokeColor=#d6b656;" parent="1" vertex="1">
          <mxGeometry x="338" y="2019.32" width="85" height="38.64" as="geometry" />
        </mxCell>
        <mxCell id="nZW0ntro5RyZMnnmfriX-124" style="rounded=0;orthogonalLoop=1;jettySize=auto;html=1;entryX=0.68;entryY=0.936;entryDx=0;entryDy=0;dashed=1;entryPerimeter=0;" parent="1" source="nZW0ntro5RyZMnnmfriX-99" target="nZW0ntro5RyZMnnmfriX-95" edge="1">
          <mxGeometry relative="1" as="geometry" />
        </mxCell>
        <mxCell id="nZW0ntro5RyZMnnmfriX-136" value="Extends" style="edgeLabel;html=1;align=center;verticalAlign=middle;resizable=0;points=[];" parent="nZW0ntro5RyZMnnmfriX-124" vertex="1" connectable="0">
          <mxGeometry x="0.0139" y="3" relative="1" as="geometry">
            <mxPoint x="1" as="offset" />
          </mxGeometry>
        </mxCell>
        <mxCell id="nZW0ntro5RyZMnnmfriX-99" value="Edit Archive" style="ellipse;whiteSpace=wrap;html=1;fillColor=#fff2cc;strokeColor=#d6b656;" parent="1" vertex="1">
          <mxGeometry x="359" y="2379.3199999999997" width="85" height="38.64" as="geometry" />
        </mxCell>
        <mxCell id="nZW0ntro5RyZMnnmfriX-100" value="Delete Archive" style="ellipse;whiteSpace=wrap;html=1;fillColor=#fff2cc;strokeColor=#d6b656;" parent="1" vertex="1">
          <mxGeometry x="433" y="2130.6799999999994" width="85" height="38.64" as="geometry" />
        </mxCell>
        <mxCell id="nZW0ntro5RyZMnnmfriX-123" style="rounded=0;orthogonalLoop=1;jettySize=auto;html=1;dashed=1;" parent="1" source="nZW0ntro5RyZMnnmfriX-101" target="nZW0ntro5RyZMnnmfriX-97" edge="1">
          <mxGeometry relative="1" as="geometry" />
        </mxCell>
        <mxCell id="nZW0ntro5RyZMnnmfriX-131" value="Extends" style="edgeLabel;html=1;align=center;verticalAlign=middle;resizable=0;points=[];" parent="nZW0ntro5RyZMnnmfriX-123" vertex="1" connectable="0">
          <mxGeometry x="-0.122" relative="1" as="geometry">
            <mxPoint as="offset" />
          </mxGeometry>
        </mxCell>
        <mxCell id="nZW0ntro5RyZMnnmfriX-101" value="Edit Lesson" style="ellipse;whiteSpace=wrap;html=1;fillColor=#fff2cc;strokeColor=#d6b656;" parent="1" vertex="1">
          <mxGeometry x="258" y="1879.32" width="85" height="38.64" as="geometry" />
        </mxCell>
        <mxCell id="nZW0ntro5RyZMnnmfriX-122" style="rounded=0;orthogonalLoop=1;jettySize=auto;html=1;entryX=1;entryY=0;entryDx=0;entryDy=0;dashed=1;" parent="1" source="nZW0ntro5RyZMnnmfriX-102" target="nZW0ntro5RyZMnnmfriX-97" edge="1">
          <mxGeometry relative="1" as="geometry" />
        </mxCell>
        <mxCell id="nZW0ntro5RyZMnnmfriX-132" value="Extends" style="edgeLabel;html=1;align=center;verticalAlign=middle;resizable=0;points=[];" parent="nZW0ntro5RyZMnnmfriX-122" vertex="1" connectable="0">
          <mxGeometry x="-0.3478" y="4" relative="1" as="geometry">
            <mxPoint as="offset" />
          </mxGeometry>
        </mxCell>
        <mxCell id="nZW0ntro5RyZMnnmfriX-102" value="Delete Lesson" style="ellipse;whiteSpace=wrap;html=1;fillColor=#fff2cc;strokeColor=#d6b656;" parent="1" vertex="1">
          <mxGeometry x="417" y="1879.32" width="85" height="38.64" as="geometry" />
        </mxCell>
        <mxCell id="nZW0ntro5RyZMnnmfriX-105" style="rounded=0;orthogonalLoop=1;jettySize=auto;html=1;entryX=0;entryY=0.5;entryDx=0;entryDy=0;endArrow=none;startFill=0;exitX=1;exitY=0.3333333333333333;exitDx=0;exitDy=0;exitPerimeter=0;" parent="1" source="nZW0ntro5RyZMnnmfriX-104" target="nZW0ntro5RyZMnnmfriX-59" edge="1">
          <mxGeometry relative="1" as="geometry" />
        </mxCell>
        <mxCell id="nZW0ntro5RyZMnnmfriX-104" value="&lt;div&gt;Teacher&lt;/div&gt;" style="shape=umlActor;verticalLabelPosition=bottom;verticalAlign=top;html=1;outlineConnect=0;" parent="1" vertex="1">
          <mxGeometry x="93" y="1090" width="30" height="60" as="geometry" />
        </mxCell>
        <mxCell id="nZW0ntro5RyZMnnmfriX-106" style="rounded=0;orthogonalLoop=1;jettySize=auto;html=1;entryX=1;entryY=0.5;entryDx=0;entryDy=0;exitX=0;exitY=0.3333333333333333;exitDx=0;exitDy=0;exitPerimeter=0;endArrow=none;startFill=0;" parent="1" source="nZW0ntro5RyZMnnmfriX-56" target="nZW0ntro5RyZMnnmfriX-60" edge="1">
          <mxGeometry relative="1" as="geometry" />
        </mxCell>
        <mxCell id="nZW0ntro5RyZMnnmfriX-108" style="rounded=0;orthogonalLoop=1;jettySize=auto;html=1;entryX=0;entryY=0.5;entryDx=0;entryDy=0;exitX=1;exitY=0.3333333333333333;exitDx=0;exitDy=0;exitPerimeter=0;endArrow=none;startFill=0;" parent="1" source="nZW0ntro5RyZMnnmfriX-54" target="nZW0ntro5RyZMnnmfriX-64" edge="1">
          <mxGeometry relative="1" as="geometry" />
        </mxCell>
        <mxCell id="nZW0ntro5RyZMnnmfriX-110" style="rounded=0;orthogonalLoop=1;jettySize=auto;html=1;entryX=0;entryY=0.5;entryDx=0;entryDy=0;exitX=1;exitY=0.3333333333333333;exitDx=0;exitDy=0;exitPerimeter=0;endArrow=none;startFill=0;" parent="1" source="nZW0ntro5RyZMnnmfriX-54" target="nZW0ntro5RyZMnnmfriX-61" edge="1">
          <mxGeometry relative="1" as="geometry" />
        </mxCell>
        <mxCell id="nZW0ntro5RyZMnnmfriX-111" style="rounded=0;orthogonalLoop=1;jettySize=auto;html=1;entryX=0;entryY=0.5;entryDx=0;entryDy=0;exitX=1;exitY=0.3333333333333333;exitDx=0;exitDy=0;exitPerimeter=0;endArrow=none;startFill=0;" parent="1" source="nZW0ntro5RyZMnnmfriX-54" target="nZW0ntro5RyZMnnmfriX-62" edge="1">
          <mxGeometry relative="1" as="geometry" />
        </mxCell>
        <mxCell id="nZW0ntro5RyZMnnmfriX-112" style="rounded=0;orthogonalLoop=1;jettySize=auto;html=1;entryX=1;entryY=0.5;entryDx=0;entryDy=0;endArrow=none;startFill=0;exitX=0;exitY=0.3333333333333333;exitDx=0;exitDy=0;exitPerimeter=0;" parent="1" source="nZW0ntro5RyZMnnmfriX-56" target="nZW0ntro5RyZMnnmfriX-59" edge="1">
          <mxGeometry relative="1" as="geometry">
            <mxPoint x="733" y="1410" as="sourcePoint" />
          </mxGeometry>
        </mxCell>
        <mxCell id="nZW0ntro5RyZMnnmfriX-114" style="rounded=0;orthogonalLoop=1;jettySize=auto;html=1;exitX=0;exitY=0.3333333333333333;exitDx=0;exitDy=0;exitPerimeter=0;endArrow=none;startFill=0;" parent="1" source="nZW0ntro5RyZMnnmfriX-56" target="nZW0ntro5RyZMnnmfriX-64" edge="1">
          <mxGeometry relative="1" as="geometry" />
        </mxCell>
        <mxCell id="nZW0ntro5RyZMnnmfriX-125" style="rounded=0;orthogonalLoop=1;jettySize=auto;html=1;dashed=1;entryX=0.945;entryY=0.397;entryDx=0;entryDy=0;entryPerimeter=0;" parent="1" source="nZW0ntro5RyZMnnmfriX-100" edge="1" target="nZW0ntro5RyZMnnmfriX-95">
          <mxGeometry relative="1" as="geometry">
            <mxPoint x="413" y="2299.32" as="targetPoint" />
          </mxGeometry>
        </mxCell>
        <mxCell id="nZW0ntro5RyZMnnmfriX-137" value="Extends" style="edgeLabel;html=1;align=center;verticalAlign=middle;resizable=0;points=[];" parent="nZW0ntro5RyZMnnmfriX-125" vertex="1" connectable="0">
          <mxGeometry x="-0.1176" y="-3" relative="1" as="geometry">
            <mxPoint as="offset" />
          </mxGeometry>
        </mxCell>
        <mxCell id="nZW0ntro5RyZMnnmfriX-152" style="rounded=0;orthogonalLoop=1;jettySize=auto;html=1;entryX=0;entryY=0.5;entryDx=0;entryDy=0;exitX=1;exitY=0.3333333333333333;exitDx=0;exitDy=0;exitPerimeter=0;endArrow=none;startFill=0;" parent="1" source="nZW0ntro5RyZMnnmfriX-139" target="nZW0ntro5RyZMnnmfriX-98" edge="1">
          <mxGeometry relative="1" as="geometry" />
        </mxCell>
        <mxCell id="nZW0ntro5RyZMnnmfriX-153" style="rounded=0;orthogonalLoop=1;jettySize=auto;html=1;exitX=1;exitY=0.3333333333333333;exitDx=0;exitDy=0;exitPerimeter=0;endArrow=none;startFill=0;" parent="1" source="nZW0ntro5RyZMnnmfriX-139" target="nZW0ntro5RyZMnnmfriX-96" edge="1">
          <mxGeometry relative="1" as="geometry" />
        </mxCell>
        <mxCell id="nZW0ntro5RyZMnnmfriX-155" style="rounded=0;orthogonalLoop=1;jettySize=auto;html=1;entryX=0;entryY=0.5;entryDx=0;entryDy=0;exitX=1;exitY=0.3333333333333333;exitDx=0;exitDy=0;exitPerimeter=0;endArrow=none;startFill=0;" parent="1" source="nZW0ntro5RyZMnnmfriX-139" target="nZW0ntro5RyZMnnmfriX-95" edge="1">
          <mxGeometry relative="1" as="geometry" />
        </mxCell>
        <mxCell id="nZW0ntro5RyZMnnmfriX-156" style="rounded=0;orthogonalLoop=1;jettySize=auto;html=1;entryX=0;entryY=0.5;entryDx=0;entryDy=0;exitX=1;exitY=0.3333333333333333;exitDx=0;exitDy=0;exitPerimeter=0;endArrow=none;startFill=0;" parent="1" source="nZW0ntro5RyZMnnmfriX-139" target="nZW0ntro5RyZMnnmfriX-99" edge="1">
          <mxGeometry relative="1" as="geometry" />
        </mxCell>
        <mxCell id="nZW0ntro5RyZMnnmfriX-157" style="rounded=0;orthogonalLoop=1;jettySize=auto;html=1;entryX=0;entryY=0.5;entryDx=0;entryDy=0;exitX=1;exitY=0.3333333333333333;exitDx=0;exitDy=0;exitPerimeter=0;endArrow=none;startFill=0;" parent="1" source="nZW0ntro5RyZMnnmfriX-139" target="nZW0ntro5RyZMnnmfriX-100" edge="1">
          <mxGeometry relative="1" as="geometry">
            <mxPoint x="453" y="2439.32" as="targetPoint" />
          </mxGeometry>
        </mxCell>
        <mxCell id="nZW0ntro5RyZMnnmfriX-139" value="&lt;div&gt;Teacher&lt;/div&gt;" style="shape=umlActor;verticalLabelPosition=bottom;verticalAlign=top;html=1;outlineConnect=0;" parent="1" vertex="1">
          <mxGeometry x="93" y="2088.64" width="30" height="60" as="geometry" />
        </mxCell>
        <mxCell id="nZW0ntro5RyZMnnmfriX-159" style="rounded=0;orthogonalLoop=1;jettySize=auto;html=1;entryX=1;entryY=0.5;entryDx=0;entryDy=0;exitX=0;exitY=0.3333333333333333;exitDx=0;exitDy=0;exitPerimeter=0;endArrow=none;startFill=0;" parent="1" source="nZW0ntro5RyZMnnmfriX-140" target="nZW0ntro5RyZMnnmfriX-102" edge="1">
          <mxGeometry relative="1" as="geometry" />
        </mxCell>
        <mxCell id="nZW0ntro5RyZMnnmfriX-161" style="rounded=0;orthogonalLoop=1;jettySize=auto;html=1;entryX=1;entryY=0;entryDx=0;entryDy=0;exitX=0;exitY=0.3333333333333333;exitDx=0;exitDy=0;exitPerimeter=0;endArrow=none;startFill=0;" parent="1" source="nZW0ntro5RyZMnnmfriX-140" target="nZW0ntro5RyZMnnmfriX-99" edge="1">
          <mxGeometry relative="1" as="geometry" />
        </mxCell>
        <mxCell id="nZW0ntro5RyZMnnmfriX-160" style="rounded=0;orthogonalLoop=1;jettySize=auto;html=1;entryX=1;entryY=0.5;entryDx=0;entryDy=0;exitX=0;exitY=0.3333333333333333;exitDx=0;exitDy=0;exitPerimeter=0;endArrow=none;startFill=0;" parent="1" source="nZW0ntro5RyZMnnmfriX-140" target="nZW0ntro5RyZMnnmfriX-100" edge="1">
          <mxGeometry relative="1" as="geometry" />
        </mxCell>
        <mxCell id="nZW0ntro5RyZMnnmfriX-162" style="rounded=0;orthogonalLoop=1;jettySize=auto;html=1;entryX=1;entryY=0.5;entryDx=0;entryDy=0;exitX=0;exitY=0.3333333333333333;exitDx=0;exitDy=0;exitPerimeter=0;endArrow=none;startFill=0;" parent="1" source="nZW0ntro5RyZMnnmfriX-140" target="nZW0ntro5RyZMnnmfriX-101" edge="1">
          <mxGeometry relative="1" as="geometry" />
        </mxCell>
        <mxCell id="nZW0ntro5RyZMnnmfriX-163" style="rounded=0;orthogonalLoop=1;jettySize=auto;html=1;entryX=1;entryY=0.5;entryDx=0;entryDy=0;endArrow=none;startFill=0;" parent="1" source="nZW0ntro5RyZMnnmfriX-140" target="nZW0ntro5RyZMnnmfriX-97" edge="1">
          <mxGeometry relative="1" as="geometry" />
        </mxCell>
        <mxCell id="nZW0ntro5RyZMnnmfriX-140" value="&lt;div&gt;BDD&lt;/div&gt;" style="shape=umlActor;verticalLabelPosition=bottom;verticalAlign=top;html=1;outlineConnect=0;" parent="1" vertex="1">
          <mxGeometry x="643" y="2057.96" width="30" height="60" as="geometry" />
        </mxCell>
        <mxCell id="nZW0ntro5RyZMnnmfriX-148" style="rounded=0;orthogonalLoop=1;jettySize=auto;html=1;exitX=1;exitY=0.3333333333333333;exitDx=0;exitDy=0;exitPerimeter=0;endArrow=none;startFill=0;" parent="1" source="nZW0ntro5RyZMnnmfriX-144" target="nZW0ntro5RyZMnnmfriX-97" edge="1">
          <mxGeometry relative="1" as="geometry" />
        </mxCell>
        <mxCell id="nZW0ntro5RyZMnnmfriX-149" style="rounded=0;orthogonalLoop=1;jettySize=auto;html=1;entryX=0;entryY=0.5;entryDx=0;entryDy=0;exitX=1;exitY=0.3333333333333333;exitDx=0;exitDy=0;exitPerimeter=0;endArrow=none;startFill=0;" parent="1" source="nZW0ntro5RyZMnnmfriX-144" target="nZW0ntro5RyZMnnmfriX-101" edge="1">
          <mxGeometry relative="1" as="geometry" />
        </mxCell>
        <mxCell id="nZW0ntro5RyZMnnmfriX-144" value="&lt;div&gt;Admin&lt;/div&gt;" style="shape=umlActor;verticalLabelPosition=bottom;verticalAlign=top;html=1;outlineConnect=0;" parent="1" vertex="1">
          <mxGeometry x="93" y="1973.32" width="30" height="60" as="geometry" />
        </mxCell>
        <mxCell id="nZW0ntro5RyZMnnmfriX-165" value="" style="rounded=0;whiteSpace=wrap;html=1;fillColor=#dae8fc;strokeColor=#6c8ebf;" parent="1" vertex="1">
          <mxGeometry x="935" y="1144.32" width="375" height="675.68" as="geometry" />
        </mxCell>
        <mxCell id="nZW0ntro5RyZMnnmfriX-166" value="Training" style="ellipse;whiteSpace=wrap;html=1;fillColor=#fff2cc;strokeColor=#d6b656;" parent="1" vertex="1">
          <mxGeometry x="1052.5" y="1160" width="85" height="38.64" as="geometry" />
        </mxCell>
        <mxCell id="nZW0ntro5RyZMnnmfriX-172" style="rounded=0;orthogonalLoop=1;jettySize=auto;html=1;entryX=0.5;entryY=0;entryDx=0;entryDy=0;" parent="1" source="nZW0ntro5RyZMnnmfriX-167" target="nZW0ntro5RyZMnnmfriX-168" edge="1">
          <mxGeometry relative="1" as="geometry" />
        </mxCell>
        <mxCell id="nZW0ntro5RyZMnnmfriX-189" value="Includes" style="edgeLabel;html=1;align=center;verticalAlign=middle;resizable=0;points=[];" parent="nZW0ntro5RyZMnnmfriX-172" vertex="1" connectable="0">
          <mxGeometry x="-0.2073" y="-2" relative="1" as="geometry">
            <mxPoint as="offset" />
          </mxGeometry>
        </mxCell>
        <mxCell id="nZW0ntro5RyZMnnmfriX-173" style="rounded=0;orthogonalLoop=1;jettySize=auto;html=1;" parent="1" source="nZW0ntro5RyZMnnmfriX-167" target="nZW0ntro5RyZMnnmfriX-169" edge="1">
          <mxGeometry relative="1" as="geometry" />
        </mxCell>
        <mxCell id="nZW0ntro5RyZMnnmfriX-188" value="Includes" style="edgeLabel;html=1;align=center;verticalAlign=middle;resizable=0;points=[];" parent="nZW0ntro5RyZMnnmfriX-173" vertex="1" connectable="0">
          <mxGeometry x="-0.0877" y="-3" relative="1" as="geometry">
            <mxPoint as="offset" />
          </mxGeometry>
        </mxCell>
        <mxCell id="nZW0ntro5RyZMnnmfriX-176" style="edgeStyle=orthogonalEdgeStyle;rounded=0;orthogonalLoop=1;jettySize=auto;html=1;" parent="1" source="nZW0ntro5RyZMnnmfriX-167" target="nZW0ntro5RyZMnnmfriX-166" edge="1">
          <mxGeometry relative="1" as="geometry" />
        </mxCell>
        <mxCell id="nZW0ntro5RyZMnnmfriX-190" value="Includes" style="edgeLabel;html=1;align=center;verticalAlign=middle;resizable=0;points=[];" parent="nZW0ntro5RyZMnnmfriX-176" vertex="1" connectable="0">
          <mxGeometry x="0.1456" y="1" relative="1" as="geometry">
            <mxPoint as="offset" />
          </mxGeometry>
        </mxCell>
        <mxCell id="nZW0ntro5RyZMnnmfriX-167" value="Awnser" style="ellipse;whiteSpace=wrap;html=1;fillColor=#fff2cc;strokeColor=#d6b656;" parent="1" vertex="1">
          <mxGeometry x="1052.5" y="1249.3200000000002" width="85" height="38.64" as="geometry" />
        </mxCell>
        <mxCell id="nZW0ntro5RyZMnnmfriX-182" style="rounded=0;orthogonalLoop=1;jettySize=auto;html=1;" parent="1" source="nZW0ntro5RyZMnnmfriX-168" target="nZW0ntro5RyZMnnmfriX-178" edge="1">
          <mxGeometry relative="1" as="geometry" />
        </mxCell>
        <mxCell id="nZW0ntro5RyZMnnmfriX-191" value="Includes" style="edgeLabel;html=1;align=center;verticalAlign=middle;resizable=0;points=[];" parent="nZW0ntro5RyZMnnmfriX-182" vertex="1" connectable="0">
          <mxGeometry x="-0.3781" y="3" relative="1" as="geometry">
            <mxPoint as="offset" />
          </mxGeometry>
        </mxCell>
        <mxCell id="nZW0ntro5RyZMnnmfriX-168" value="Go To next&amp;nbsp;" style="ellipse;whiteSpace=wrap;html=1;fillColor=#fff2cc;strokeColor=#d6b656;" parent="1" vertex="1">
          <mxGeometry x="1012.5" y="1511.36" width="85" height="38.64" as="geometry" />
        </mxCell>
        <mxCell id="nZW0ntro5RyZMnnmfriX-169" value="Loose A Life" style="ellipse;whiteSpace=wrap;html=1;fillColor=#fff2cc;strokeColor=#d6b656;" parent="1" vertex="1">
          <mxGeometry x="1096" y="1350" width="85" height="38.64" as="geometry" />
        </mxCell>
        <mxCell id="nZW0ntro5RyZMnnmfriX-186" style="rounded=0;orthogonalLoop=1;jettySize=auto;html=1;" parent="1" source="nZW0ntro5RyZMnnmfriX-177" target="nZW0ntro5RyZMnnmfriX-178" edge="1">
          <mxGeometry relative="1" as="geometry" />
        </mxCell>
        <mxCell id="nZW0ntro5RyZMnnmfriX-194" value="Includes" style="edgeLabel;html=1;align=center;verticalAlign=middle;resizable=0;points=[];" parent="nZW0ntro5RyZMnnmfriX-186" vertex="1" connectable="0">
          <mxGeometry x="-0.0953" relative="1" as="geometry">
            <mxPoint x="-13" y="20" as="offset" />
          </mxGeometry>
        </mxCell>
        <mxCell id="nZW0ntro5RyZMnnmfriX-187" style="rounded=0;orthogonalLoop=1;jettySize=auto;html=1;entryX=0.5;entryY=1;entryDx=0;entryDy=0;dashed=1;" parent="1" source="nZW0ntro5RyZMnnmfriX-177" target="nZW0ntro5RyZMnnmfriX-169" edge="1">
          <mxGeometry relative="1" as="geometry" />
        </mxCell>
        <mxCell id="nZW0ntro5RyZMnnmfriX-192" value="Extends" style="edgeLabel;html=1;align=center;verticalAlign=middle;resizable=0;points=[];" parent="nZW0ntro5RyZMnnmfriX-187" vertex="1" connectable="0">
          <mxGeometry x="0.0197" y="1" relative="1" as="geometry">
            <mxPoint as="offset" />
          </mxGeometry>
        </mxCell>
        <mxCell id="nZW0ntro5RyZMnnmfriX-178" value="Go To Last Page" style="ellipse;whiteSpace=wrap;html=1;fillColor=#fff2cc;strokeColor=#d6b656;" parent="1" vertex="1">
          <mxGeometry x="1052.5" y="1748.3200000000002" width="120" height="41.36" as="geometry" />
        </mxCell>
        <mxCell id="nZW0ntro5RyZMnnmfriX-184" style="rounded=0;orthogonalLoop=1;jettySize=auto;html=1;entryX=0.742;entryY=0.92;entryDx=0;entryDy=0;entryPerimeter=0;dashed=1;" parent="1" source="nZW0ntro5RyZMnnmfriX-179" target="nZW0ntro5RyZMnnmfriX-177" edge="1">
          <mxGeometry relative="1" as="geometry" />
        </mxCell>
        <mxCell id="nZW0ntro5RyZMnnmfriX-193" value="Extends" style="edgeLabel;html=1;align=center;verticalAlign=middle;resizable=0;points=[];" parent="nZW0ntro5RyZMnnmfriX-184" vertex="1" connectable="0">
          <mxGeometry x="-0.1261" y="-2" relative="1" as="geometry">
            <mxPoint as="offset" />
          </mxGeometry>
        </mxCell>
        <mxCell id="nZW0ntro5RyZMnnmfriX-195" value="&lt;font style=&quot;font-size: 10px;&quot;&gt;{{If all exercices complete}}&lt;/font&gt;" style="text;html=1;align=center;verticalAlign=middle;whiteSpace=wrap;rounded=0;" parent="1" vertex="1">
          <mxGeometry x="955" y="1754" width="90" height="30" as="geometry" />
        </mxCell>
        <mxCell id="nZW0ntro5RyZMnnmfriX-196" value="&lt;font style=&quot;font-size: 10px;&quot;&gt;{{If don&#39;t buy life}}&lt;/font&gt;" style="text;html=1;align=center;verticalAlign=middle;whiteSpace=wrap;rounded=0;" parent="1" vertex="1">
          <mxGeometry x="1180" y="1744.36" width="130" height="30" as="geometry" />
        </mxCell>
        <mxCell id="nZW0ntro5RyZMnnmfriX-197" value="&lt;font style=&quot;font-size: 10px;&quot;&gt;{{If life &amp;lt; 0}}&lt;/font&gt;" style="text;html=1;align=center;verticalAlign=middle;whiteSpace=wrap;rounded=0;" parent="1" vertex="1">
          <mxGeometry x="1160" y="1387.9600000000003" width="130" height="30" as="geometry" />
        </mxCell>
        <mxCell id="nZW0ntro5RyZMnnmfriX-199" style="rounded=0;orthogonalLoop=1;jettySize=auto;html=1;entryX=0;entryY=0.5;entryDx=0;entryDy=0;exitX=1;exitY=0.3333333333333333;exitDx=0;exitDy=0;exitPerimeter=0;endArrow=none;startFill=0;" parent="1" source="nZW0ntro5RyZMnnmfriX-198" target="nZW0ntro5RyZMnnmfriX-168" edge="1">
          <mxGeometry relative="1" as="geometry" />
        </mxCell>
        <mxCell id="nZW0ntro5RyZMnnmfriX-200" style="rounded=0;orthogonalLoop=1;jettySize=auto;html=1;entryX=0;entryY=0.5;entryDx=0;entryDy=0;exitX=1;exitY=0.3333333333333333;exitDx=0;exitDy=0;exitPerimeter=0;endArrow=none;startFill=0;" parent="1" source="nZW0ntro5RyZMnnmfriX-198" target="nZW0ntro5RyZMnnmfriX-178" edge="1">
          <mxGeometry relative="1" as="geometry" />
        </mxCell>
        <mxCell id="nZW0ntro5RyZMnnmfriX-203" style="rounded=0;orthogonalLoop=1;jettySize=auto;html=1;entryX=0;entryY=0.5;entryDx=0;entryDy=0;exitX=1;exitY=0.3333333333333333;exitDx=0;exitDy=0;exitPerimeter=0;endArrow=none;startFill=0;" parent="1" source="nZW0ntro5RyZMnnmfriX-198" target="nZW0ntro5RyZMnnmfriX-179" edge="1">
          <mxGeometry relative="1" as="geometry" />
        </mxCell>
        <mxCell id="nZW0ntro5RyZMnnmfriX-201" style="rounded=0;orthogonalLoop=1;jettySize=auto;html=1;entryX=0;entryY=0.5;entryDx=0;entryDy=0;exitX=1;exitY=0.3333333333333333;exitDx=0;exitDy=0;exitPerimeter=0;endArrow=none;startFill=0;" parent="1" source="nZW0ntro5RyZMnnmfriX-198" target="nZW0ntro5RyZMnnmfriX-167" edge="1">
          <mxGeometry relative="1" as="geometry" />
        </mxCell>
        <mxCell id="nZW0ntro5RyZMnnmfriX-207" style="rounded=0;orthogonalLoop=1;jettySize=auto;html=1;entryX=0;entryY=1;entryDx=0;entryDy=0;exitX=1;exitY=0.3333333333333333;exitDx=0;exitDy=0;exitPerimeter=0;endArrow=none;startFill=0;" parent="1" source="nZW0ntro5RyZMnnmfriX-198" target="nZW0ntro5RyZMnnmfriX-169" edge="1">
          <mxGeometry relative="1" as="geometry" />
        </mxCell>
        <mxCell id="nZW0ntro5RyZMnnmfriX-198" value="&lt;div&gt;User&lt;/div&gt;" style="shape=umlActor;verticalLabelPosition=bottom;verticalAlign=top;html=1;outlineConnect=0;" parent="1" vertex="1">
          <mxGeometry x="827" y="1377.1599999999999" width="30" height="60" as="geometry" />
        </mxCell>
        <mxCell id="nZW0ntro5RyZMnnmfriX-205" style="rounded=0;orthogonalLoop=1;jettySize=auto;html=1;entryX=1;entryY=0.5;entryDx=0;entryDy=0;exitX=0;exitY=0.3333333333333333;exitDx=0;exitDy=0;exitPerimeter=0;endArrow=none;startFill=0;" parent="1" source="nZW0ntro5RyZMnnmfriX-204" target="nZW0ntro5RyZMnnmfriX-167" edge="1">
          <mxGeometry relative="1" as="geometry" />
        </mxCell>
        <mxCell id="nZW0ntro5RyZMnnmfriX-204" value="&lt;div&gt;BDD&lt;/div&gt;" style="shape=umlActor;verticalLabelPosition=bottom;verticalAlign=top;html=1;outlineConnect=0;" parent="1" vertex="1">
          <mxGeometry x="1380" y="1160.0000000000002" width="30" height="60" as="geometry" />
        </mxCell>
        <mxCell id="nZW0ntro5RyZMnnmfriX-206" style="rounded=0;orthogonalLoop=1;jettySize=auto;html=1;entryX=1;entryY=0.5;entryDx=0;entryDy=0;exitX=0;exitY=0.3333333333333333;exitDx=0;exitDy=0;exitPerimeter=0;endArrow=none;startFill=0;" parent="1" source="nZW0ntro5RyZMnnmfriX-204" target="nZW0ntro5RyZMnnmfriX-177" edge="1">
          <mxGeometry relative="1" as="geometry" />
        </mxCell>
        <mxCell id="nZW0ntro5RyZMnnmfriX-209" style="rounded=0;orthogonalLoop=1;jettySize=auto;html=1;entryX=1;entryY=0.5;entryDx=0;entryDy=0;endArrow=none;startFill=0;exitX=0;exitY=0.3333333333333333;exitDx=0;exitDy=0;exitPerimeter=0;" parent="1" source="nZW0ntro5RyZMnnmfriX-208" target="nZW0ntro5RyZMnnmfriX-61" edge="1">
          <mxGeometry relative="1" as="geometry" />
        </mxCell>
        <mxCell id="nZW0ntro5RyZMnnmfriX-210" style="rounded=0;orthogonalLoop=1;jettySize=auto;html=1;entryX=1;entryY=0.5;entryDx=0;entryDy=0;exitX=0;exitY=0.3333333333333333;exitDx=0;exitDy=0;exitPerimeter=0;endArrow=none;startFill=0;" parent="1" source="nZW0ntro5RyZMnnmfriX-208" target="nZW0ntro5RyZMnnmfriX-62" edge="1">
          <mxGeometry relative="1" as="geometry" />
        </mxCell>
        <mxCell id="nZW0ntro5RyZMnnmfriX-208" value="Router" style="shape=umlActor;verticalLabelPosition=bottom;verticalAlign=top;html=1;outlineConnect=0;" parent="1" vertex="1">
          <mxGeometry x="713" y="1448.6400000000003" width="30" height="60" as="geometry" />
        </mxCell>
        <mxCell id="nZW0ntro5RyZMnnmfriX-213" style="rounded=0;orthogonalLoop=1;jettySize=auto;html=1;entryX=1;entryY=0.5;entryDx=0;entryDy=0;endArrow=none;startFill=0;exitX=0;exitY=0.3333333333333333;exitDx=0;exitDy=0;exitPerimeter=0;" parent="1" source="nZW0ntro5RyZMnnmfriX-211" target="nZW0ntro5RyZMnnmfriX-178" edge="1">
          <mxGeometry relative="1" as="geometry">
            <mxPoint x="1490" y="1375.0599999999995" as="sourcePoint" />
            <mxPoint x="1143.1295743226533" y="1630.0034752257825" as="targetPoint" />
          </mxGeometry>
        </mxCell>
        <mxCell id="nZW0ntro5RyZMnnmfriX-212" style="rounded=0;orthogonalLoop=1;jettySize=auto;html=1;entryX=1;entryY=0.5;entryDx=0;entryDy=0;exitX=0;exitY=0.3333333333333333;exitDx=0;exitDy=0;exitPerimeter=0;endArrow=none;startFill=0;" parent="1" source="nZW0ntro5RyZMnnmfriX-211" target="nZW0ntro5RyZMnnmfriX-168" edge="1">
          <mxGeometry relative="1" as="geometry" />
        </mxCell>
        <mxCell id="nZW0ntro5RyZMnnmfriX-211" value="Router" style="shape=umlActor;verticalLabelPosition=bottom;verticalAlign=top;html=1;outlineConnect=0;" parent="1" vertex="1">
          <mxGeometry x="1440" y="1372.9599999999998" width="30" height="60" as="geometry" />
        </mxCell>
        <mxCell id="nZW0ntro5RyZMnnmfriX-177" value="Show life buying pannel" style="ellipse;whiteSpace=wrap;html=1;fillColor=#fff2cc;strokeColor=#d6b656;" parent="1" vertex="1">
          <mxGeometry x="1137.5" y="1417.96" width="120" height="41.36" as="geometry" />
        </mxCell>
        <mxCell id="nZW0ntro5RyZMnnmfriX-179" value="Buy Life" style="ellipse;whiteSpace=wrap;html=1;fillColor=#fff2cc;strokeColor=#d6b656;" parent="1" vertex="1">
          <mxGeometry x="1181" y="1533.7000000000003" width="120" height="41.36" as="geometry" />
        </mxCell>
        <mxCell id="YOUpktUxaB1BnOb7g7wJ-8" value="" style="rounded=0;whiteSpace=wrap;html=1;fillColor=#dae8fc;strokeColor=#6c8ebf;" vertex="1" parent="1">
          <mxGeometry x="930" y="530" width="370" height="435.68" as="geometry" />
        </mxCell>
        <mxCell id="YOUpktUxaB1BnOb7g7wJ-47" style="rounded=0;orthogonalLoop=1;jettySize=auto;html=1;entryX=1;entryY=0.5;entryDx=0;entryDy=0;endArrow=none;startFill=0;exitX=0;exitY=0.3333333333333333;exitDx=0;exitDy=0;exitPerimeter=0;" edge="1" parent="1" source="YOUpktUxaB1BnOb7g7wJ-11" target="YOUpktUxaB1BnOb7g7wJ-25">
          <mxGeometry relative="1" as="geometry" />
        </mxCell>
        <mxCell id="YOUpktUxaB1BnOb7g7wJ-11" value="&lt;div&gt;BDD&lt;/div&gt;" style="shape=umlActor;verticalLabelPosition=bottom;verticalAlign=top;html=1;outlineConnect=0;" vertex="1" parent="1">
          <mxGeometry x="1339" y="518.5200000000001" width="30" height="60" as="geometry" />
        </mxCell>
        <mxCell id="YOUpktUxaB1BnOb7g7wJ-12" style="rounded=0;orthogonalLoop=1;jettySize=auto;html=1;endArrow=none;startFill=0;exitX=1;exitY=0.3333333333333333;exitDx=0;exitDy=0;exitPerimeter=0;" edge="1" source="YOUpktUxaB1BnOb7g7wJ-14" target="YOUpktUxaB1BnOb7g7wJ-25" parent="1">
          <mxGeometry relative="1" as="geometry" />
        </mxCell>
        <mxCell id="YOUpktUxaB1BnOb7g7wJ-14" value="&lt;div&gt;User&lt;/div&gt;" style="shape=umlActor;verticalLabelPosition=bottom;verticalAlign=top;html=1;outlineConnect=0;" vertex="1" parent="1">
          <mxGeometry x="860" y="717.84" width="30" height="60" as="geometry" />
        </mxCell>
        <mxCell id="YOUpktUxaB1BnOb7g7wJ-22" style="rounded=0;orthogonalLoop=1;jettySize=auto;html=1;dashed=1;" edge="1" source="YOUpktUxaB1BnOb7g7wJ-25" target="YOUpktUxaB1BnOb7g7wJ-24" parent="1">
          <mxGeometry relative="1" as="geometry" />
        </mxCell>
        <mxCell id="YOUpktUxaB1BnOb7g7wJ-23" value="Extends" style="edgeLabel;html=1;align=center;verticalAlign=middle;resizable=0;points=[];" vertex="1" connectable="0" parent="YOUpktUxaB1BnOb7g7wJ-22">
          <mxGeometry x="-0.3453" y="-1" relative="1" as="geometry">
            <mxPoint as="offset" />
          </mxGeometry>
        </mxCell>
        <mxCell id="YOUpktUxaB1BnOb7g7wJ-38" style="rounded=0;orthogonalLoop=1;jettySize=auto;html=1;dashed=1;" edge="1" parent="1" source="YOUpktUxaB1BnOb7g7wJ-24" target="YOUpktUxaB1BnOb7g7wJ-37">
          <mxGeometry relative="1" as="geometry" />
        </mxCell>
        <mxCell id="YOUpktUxaB1BnOb7g7wJ-39" value="Extends" style="edgeLabel;html=1;align=center;verticalAlign=middle;resizable=0;points=[];" vertex="1" connectable="0" parent="YOUpktUxaB1BnOb7g7wJ-38">
          <mxGeometry x="0.1749" relative="1" as="geometry">
            <mxPoint as="offset" />
          </mxGeometry>
        </mxCell>
        <mxCell id="YOUpktUxaB1BnOb7g7wJ-40" style="rounded=0;orthogonalLoop=1;jettySize=auto;html=1;dashed=1;" edge="1" parent="1" source="YOUpktUxaB1BnOb7g7wJ-24" target="YOUpktUxaB1BnOb7g7wJ-27">
          <mxGeometry relative="1" as="geometry" />
        </mxCell>
        <mxCell id="YOUpktUxaB1BnOb7g7wJ-41" value="Extends" style="edgeLabel;html=1;align=center;verticalAlign=middle;resizable=0;points=[];" vertex="1" connectable="0" parent="YOUpktUxaB1BnOb7g7wJ-40">
          <mxGeometry x="0.1242" y="-2" relative="1" as="geometry">
            <mxPoint as="offset" />
          </mxGeometry>
        </mxCell>
        <mxCell id="YOUpktUxaB1BnOb7g7wJ-45" value="{{&quot;wait for mail&lt;div&gt;&amp;nbsp;confimation&quot;}}&lt;/div&gt;" style="edgeLabel;html=1;align=center;verticalAlign=middle;resizable=0;points=[];" vertex="1" connectable="0" parent="YOUpktUxaB1BnOb7g7wJ-40">
          <mxGeometry x="-0.182" y="-1" relative="1" as="geometry">
            <mxPoint as="offset" />
          </mxGeometry>
        </mxCell>
        <mxCell id="YOUpktUxaB1BnOb7g7wJ-24" value="Go To Sign up page" style="ellipse;whiteSpace=wrap;html=1;fillColor=#fff2cc;strokeColor=#d6b656;" vertex="1" parent="1">
          <mxGeometry x="1101" y="863.52" width="130" height="48.64" as="geometry" />
        </mxCell>
        <mxCell id="YOUpktUxaB1BnOb7g7wJ-25" value="Create Account" style="ellipse;whiteSpace=wrap;html=1;fillColor=#fff2cc;strokeColor=#d6b656;" vertex="1" parent="1">
          <mxGeometry x="941.5" y="680" width="130" height="48.64" as="geometry" />
        </mxCell>
        <mxCell id="YOUpktUxaB1BnOb7g7wJ-26" value="&lt;font style=&quot;font-size: 10px;&quot;&gt;{if user don&#39;t have an account}&lt;/font&gt;" style="text;html=1;align=center;verticalAlign=middle;whiteSpace=wrap;rounded=0;" vertex="1" parent="1">
          <mxGeometry x="955" y="645" width="90" height="30" as="geometry" />
        </mxCell>
        <mxCell id="YOUpktUxaB1BnOb7g7wJ-27" value="Go to homepage&amp;nbsp;" style="ellipse;whiteSpace=wrap;html=1;fillColor=#fff2cc;strokeColor=#d6b656;" vertex="1" parent="1">
          <mxGeometry x="1035" y="583.52" width="85" height="38.64" as="geometry" />
        </mxCell>
        <mxCell id="YOUpktUxaB1BnOb7g7wJ-28" value="&lt;font style=&quot;font-size: 10px;&quot;&gt;{if user entered correct information}&lt;/font&gt;" style="text;html=1;align=center;verticalAlign=middle;whiteSpace=wrap;rounded=0;" vertex="1" parent="1">
          <mxGeometry x="1018.5" y="533.5200000000001" width="90" height="30" as="geometry" />
        </mxCell>
        <mxCell id="YOUpktUxaB1BnOb7g7wJ-34" style="rounded=0;orthogonalLoop=1;jettySize=auto;html=1;entryX=1;entryY=0.5;entryDx=0;entryDy=0;endArrow=none;startFill=0;exitX=0;exitY=0.3333333333333333;exitDx=0;exitDy=0;exitPerimeter=0;" edge="1" source="YOUpktUxaB1BnOb7g7wJ-35" target="YOUpktUxaB1BnOb7g7wJ-27" parent="1">
          <mxGeometry relative="1" as="geometry">
            <Array as="points" />
          </mxGeometry>
        </mxCell>
        <mxCell id="YOUpktUxaB1BnOb7g7wJ-35" value="Router" style="shape=umlActor;verticalLabelPosition=bottom;verticalAlign=top;html=1;outlineConnect=0;" vertex="1" parent="1">
          <mxGeometry x="1355" y="631.3600000000001" width="30" height="60" as="geometry" />
        </mxCell>
        <mxCell id="YOUpktUxaB1BnOb7g7wJ-36" style="rounded=0;orthogonalLoop=1;jettySize=auto;html=1;entryX=1;entryY=0.5;entryDx=0;entryDy=0;endArrow=none;startFill=0;exitX=0;exitY=0.3333333333333333;exitDx=0;exitDy=0;exitPerimeter=0;" edge="1" source="YOUpktUxaB1BnOb7g7wJ-35" target="YOUpktUxaB1BnOb7g7wJ-24" parent="1">
          <mxGeometry relative="1" as="geometry">
            <mxPoint x="1435" y="697.84" as="sourcePoint" />
            <mxPoint x="1310" y="652.84" as="targetPoint" />
            <Array as="points" />
          </mxGeometry>
        </mxCell>
        <mxCell id="YOUpktUxaB1BnOb7g7wJ-42" style="rounded=0;orthogonalLoop=1;jettySize=auto;html=1;entryX=1;entryY=1;entryDx=0;entryDy=0;dashed=1;" edge="1" parent="1" source="YOUpktUxaB1BnOb7g7wJ-37" target="YOUpktUxaB1BnOb7g7wJ-27">
          <mxGeometry relative="1" as="geometry" />
        </mxCell>
        <mxCell id="YOUpktUxaB1BnOb7g7wJ-43" value="Extends" style="edgeLabel;html=1;align=center;verticalAlign=middle;resizable=0;points=[];" vertex="1" connectable="0" parent="YOUpktUxaB1BnOb7g7wJ-42">
          <mxGeometry x="-0.1091" relative="1" as="geometry">
            <mxPoint x="-32" y="-26" as="offset" />
          </mxGeometry>
        </mxCell>
        <mxCell id="YOUpktUxaB1BnOb7g7wJ-46" value="{{&quot;Confirmation&amp;nbsp;&lt;div&gt;complete&quot;}}&lt;/div&gt;" style="edgeLabel;html=1;align=center;verticalAlign=middle;resizable=0;points=[];" vertex="1" connectable="0" parent="YOUpktUxaB1BnOb7g7wJ-42">
          <mxGeometry x="-0.5092" y="1" relative="1" as="geometry">
            <mxPoint as="offset" />
          </mxGeometry>
        </mxCell>
        <mxCell id="YOUpktUxaB1BnOb7g7wJ-37" value="Send mail confirmation" style="ellipse;whiteSpace=wrap;html=1;fillColor=#fff2cc;strokeColor=#d6b656;" vertex="1" parent="1">
          <mxGeometry x="1166" y="717.8400000000001" width="130" height="48.64" as="geometry" />
        </mxCell>
        <mxCell id="YOUpktUxaB1BnOb7g7wJ-51" style="rounded=0;orthogonalLoop=1;jettySize=auto;html=1;entryX=1;entryY=0.5;entryDx=0;entryDy=0;endArrow=none;startFill=0;" edge="1" parent="1" source="YOUpktUxaB1BnOb7g7wJ-48" target="YOUpktUxaB1BnOb7g7wJ-37">
          <mxGeometry relative="1" as="geometry" />
        </mxCell>
        <mxCell id="YOUpktUxaB1BnOb7g7wJ-48" value="MailManager" style="shape=umlActor;verticalLabelPosition=bottom;verticalAlign=top;html=1;outlineConnect=0;" vertex="1" parent="1">
          <mxGeometry x="1355" y="761.3600000000001" width="30" height="60" as="geometry" />
        </mxCell>
        <mxCell id="YOUpktUxaB1BnOb7g7wJ-53" value="Show ad" style="ellipse;whiteSpace=wrap;html=1;fillColor=#fff2cc;strokeColor=#d6b656;" vertex="1" parent="1">
          <mxGeometry x="555.5" y="1360" width="93.5" height="38.64" as="geometry" />
        </mxCell>
        <mxCell id="YOUpktUxaB1BnOb7g7wJ-57" style="rounded=0;orthogonalLoop=1;jettySize=auto;html=1;endArrow=none;startFill=0;exitX=0;exitY=0.3333333333333333;exitDx=0;exitDy=0;exitPerimeter=0;entryX=1;entryY=0.5;entryDx=0;entryDy=0;" edge="1" parent="1" source="YOUpktUxaB1BnOb7g7wJ-56" target="YOUpktUxaB1BnOb7g7wJ-53">
          <mxGeometry relative="1" as="geometry" />
        </mxCell>
        <mxCell id="YOUpktUxaB1BnOb7g7wJ-56" value="IMA SDK" style="shape=umlActor;verticalLabelPosition=bottom;verticalAlign=top;html=1;outlineConnect=0;" vertex="1" parent="1">
          <mxGeometry x="693" y="1319.9999999999998" width="30" height="60" as="geometry" />
        </mxCell>
        <mxCell id="YOUpktUxaB1BnOb7g7wJ-58" value="" style="rounded=0;whiteSpace=wrap;html=1;fillColor=#dae8fc;strokeColor=#6c8ebf;" vertex="1" parent="1">
          <mxGeometry x="992" y="1898.6399999999999" width="320" height="330" as="geometry" />
        </mxCell>
        <mxCell id="YOUpktUxaB1BnOb7g7wJ-70" style="rounded=0;orthogonalLoop=1;jettySize=auto;html=1;strokeColor=none;dashed=1;curved=1;" edge="1" parent="1" source="YOUpktUxaB1BnOb7g7wJ-59" target="YOUpktUxaB1BnOb7g7wJ-60">
          <mxGeometry relative="1" as="geometry" />
        </mxCell>
        <mxCell id="YOUpktUxaB1BnOb7g7wJ-59" value="Buy Life" style="ellipse;whiteSpace=wrap;html=1;fillColor=#fff2cc;strokeColor=#d6b656;" vertex="1" parent="1">
          <mxGeometry x="1101" y="2147.2799999999997" width="120" height="41.36" as="geometry" />
        </mxCell>
        <mxCell id="YOUpktUxaB1BnOb7g7wJ-71" style="rounded=0;orthogonalLoop=1;jettySize=auto;html=1;dashed=1;" edge="1" parent="1" source="YOUpktUxaB1BnOb7g7wJ-60" target="YOUpktUxaB1BnOb7g7wJ-59">
          <mxGeometry relative="1" as="geometry" />
        </mxCell>
        <mxCell id="YOUpktUxaB1BnOb7g7wJ-72" value="Extends" style="edgeLabel;html=1;align=center;verticalAlign=middle;resizable=0;points=[];" vertex="1" connectable="0" parent="YOUpktUxaB1BnOb7g7wJ-71">
          <mxGeometry x="-0.0489" y="-2" relative="1" as="geometry">
            <mxPoint x="10" y="37" as="offset" />
          </mxGeometry>
        </mxCell>
        <mxCell id="YOUpktUxaB1BnOb7g7wJ-60" value="Show Ad" style="ellipse;whiteSpace=wrap;html=1;fillColor=#fff2cc;strokeColor=#d6b656;" vertex="1" parent="1">
          <mxGeometry x="1082" y="1950" width="120" height="41.36" as="geometry" />
        </mxCell>
        <mxCell id="YOUpktUxaB1BnOb7g7wJ-67" style="rounded=0;orthogonalLoop=1;jettySize=auto;html=1;dashed=1;" edge="1" parent="1" source="YOUpktUxaB1BnOb7g7wJ-61" target="YOUpktUxaB1BnOb7g7wJ-59">
          <mxGeometry relative="1" as="geometry" />
        </mxCell>
        <mxCell id="YOUpktUxaB1BnOb7g7wJ-68" value="Extends" style="edgeLabel;html=1;align=center;verticalAlign=middle;resizable=0;points=[];" vertex="1" connectable="0" parent="YOUpktUxaB1BnOb7g7wJ-67">
          <mxGeometry x="-0.3161" y="-1" relative="1" as="geometry">
            <mxPoint x="2" y="7" as="offset" />
          </mxGeometry>
        </mxCell>
        <mxCell id="YOUpktUxaB1BnOb7g7wJ-61" value="Use in game currency" style="ellipse;whiteSpace=wrap;html=1;fillColor=#fff2cc;strokeColor=#d6b656;" vertex="1" parent="1">
          <mxGeometry x="1012.5" y="2042.9600000000003" width="120" height="41.36" as="geometry" />
        </mxCell>
        <mxCell id="YOUpktUxaB1BnOb7g7wJ-62" style="edgeStyle=orthogonalEdgeStyle;rounded=0;orthogonalLoop=1;jettySize=auto;html=1;exitX=0.5;exitY=1;exitDx=0;exitDy=0;" edge="1" parent="1" source="YOUpktUxaB1BnOb7g7wJ-58" target="YOUpktUxaB1BnOb7g7wJ-58">
          <mxGeometry relative="1" as="geometry" />
        </mxCell>
        <mxCell id="YOUpktUxaB1BnOb7g7wJ-65" style="rounded=0;orthogonalLoop=1;jettySize=auto;html=1;exitX=1;exitY=0.3333333333333333;exitDx=0;exitDy=0;exitPerimeter=0;endArrow=none;endFill=1;startFill=0;" edge="1" parent="1" source="YOUpktUxaB1BnOb7g7wJ-63" target="YOUpktUxaB1BnOb7g7wJ-61">
          <mxGeometry relative="1" as="geometry" />
        </mxCell>
        <mxCell id="YOUpktUxaB1BnOb7g7wJ-66" style="rounded=0;orthogonalLoop=1;jettySize=auto;html=1;entryX=0;entryY=0.5;entryDx=0;entryDy=0;exitX=1;exitY=0.3333333333333333;exitDx=0;exitDy=0;exitPerimeter=0;endArrow=none;startFill=0;" edge="1" parent="1" source="YOUpktUxaB1BnOb7g7wJ-63" target="YOUpktUxaB1BnOb7g7wJ-59">
          <mxGeometry relative="1" as="geometry" />
        </mxCell>
        <mxCell id="YOUpktUxaB1BnOb7g7wJ-63" value="&lt;div&gt;User&lt;/div&gt;" style="shape=umlActor;verticalLabelPosition=bottom;verticalAlign=top;html=1;outlineConnect=0;" vertex="1" parent="1">
          <mxGeometry x="894.5" y="2047.2800000000002" width="30" height="60" as="geometry" />
        </mxCell>
        <mxCell id="YOUpktUxaB1BnOb7g7wJ-74" style="rounded=0;orthogonalLoop=1;jettySize=auto;html=1;exitX=0;exitY=0.3333333333333333;exitDx=0;exitDy=0;exitPerimeter=0;endArrow=none;startFill=0;entryX=1;entryY=0.5;entryDx=0;entryDy=0;" edge="1" parent="1" source="YOUpktUxaB1BnOb7g7wJ-73" target="YOUpktUxaB1BnOb7g7wJ-61">
          <mxGeometry relative="1" as="geometry" />
        </mxCell>
        <mxCell id="YOUpktUxaB1BnOb7g7wJ-75" style="rounded=0;orthogonalLoop=1;jettySize=auto;html=1;entryX=1;entryY=0.5;entryDx=0;entryDy=0;endArrow=none;startFill=0;exitX=0;exitY=0.3333333333333333;exitDx=0;exitDy=0;exitPerimeter=0;" edge="1" parent="1" source="YOUpktUxaB1BnOb7g7wJ-73" target="YOUpktUxaB1BnOb7g7wJ-59">
          <mxGeometry relative="1" as="geometry" />
        </mxCell>
        <mxCell id="YOUpktUxaB1BnOb7g7wJ-73" value="&lt;div&gt;BDD&lt;/div&gt;" style="shape=umlActor;verticalLabelPosition=bottom;verticalAlign=top;html=1;outlineConnect=0;" vertex="1" parent="1">
          <mxGeometry x="1352" y="2087.2799999999997" width="30" height="60" as="geometry" />
        </mxCell>
        <mxCell id="YOUpktUxaB1BnOb7g7wJ-77" style="rounded=0;orthogonalLoop=1;jettySize=auto;html=1;endArrow=none;startFill=0;exitX=0;exitY=0.3333333333333333;exitDx=0;exitDy=0;exitPerimeter=0;" edge="1" parent="1" source="YOUpktUxaB1BnOb7g7wJ-76" target="YOUpktUxaB1BnOb7g7wJ-60">
          <mxGeometry relative="1" as="geometry" />
        </mxCell>
        <mxCell id="YOUpktUxaB1BnOb7g7wJ-76" value="IMA SDK" style="shape=umlActor;verticalLabelPosition=bottom;verticalAlign=top;html=1;outlineConnect=0;" vertex="1" parent="1">
          <mxGeometry x="1334.5" y="1949.9999999999995" width="30" height="60" as="geometry" />
        </mxCell>
        <mxCell id="YOUpktUxaB1BnOb7g7wJ-80" value="" style="rounded=0;whiteSpace=wrap;html=1;fillColor=#dae8fc;strokeColor=#6c8ebf;" vertex="1" parent="1">
          <mxGeometry x="992" y="2350" width="320" height="340" as="geometry" />
        </mxCell>
        <mxCell id="YOUpktUxaB1BnOb7g7wJ-81" style="rounded=0;orthogonalLoop=1;jettySize=auto;html=1;strokeColor=none;dashed=1;curved=1;" edge="1" parent="1">
          <mxGeometry relative="1" as="geometry">
            <mxPoint x="1250.0688874024445" y="2568.119221175558" as="sourcePoint" />
            <mxPoint x="1181.9394275249097" y="2380.520420922876" as="targetPoint" />
          </mxGeometry>
        </mxCell>
        <mxCell id="YOUpktUxaB1BnOb7g7wJ-89" style="edgeStyle=orthogonalEdgeStyle;rounded=0;orthogonalLoop=1;jettySize=auto;html=1;exitX=0.5;exitY=1;exitDx=0;exitDy=0;" edge="1" parent="1" source="YOUpktUxaB1BnOb7g7wJ-80" target="YOUpktUxaB1BnOb7g7wJ-80">
          <mxGeometry relative="1" as="geometry" />
        </mxCell>
        <mxCell id="YOUpktUxaB1BnOb7g7wJ-125" style="rounded=0;orthogonalLoop=1;jettySize=auto;html=1;exitX=1;exitY=0.3333333333333333;exitDx=0;exitDy=0;exitPerimeter=0;endArrow=none;startFill=0;" edge="1" parent="1" source="YOUpktUxaB1BnOb7g7wJ-92" target="YOUpktUxaB1BnOb7g7wJ-117">
          <mxGeometry relative="1" as="geometry" />
        </mxCell>
        <mxCell id="YOUpktUxaB1BnOb7g7wJ-92" value="&lt;div&gt;User&lt;/div&gt;" style="shape=umlActor;verticalLabelPosition=bottom;verticalAlign=top;html=1;outlineConnect=0;" vertex="1" parent="1">
          <mxGeometry x="894.5" y="2429.3200000000006" width="30" height="60" as="geometry" />
        </mxCell>
        <mxCell id="YOUpktUxaB1BnOb7g7wJ-100" style="rounded=0;orthogonalLoop=1;jettySize=auto;html=1;entryX=0;entryY=0;entryDx=0;entryDy=0;dashed=1;" edge="1" parent="1" source="YOUpktUxaB1BnOb7g7wJ-99" target="nZW0ntro5RyZMnnmfriX-178">
          <mxGeometry relative="1" as="geometry" />
        </mxCell>
        <mxCell id="YOUpktUxaB1BnOb7g7wJ-101" value="Extends" style="edgeLabel;html=1;align=center;verticalAlign=middle;resizable=0;points=[];" vertex="1" connectable="0" parent="YOUpktUxaB1BnOb7g7wJ-100">
          <mxGeometry x="-0.0953" relative="1" as="geometry">
            <mxPoint as="offset" />
          </mxGeometry>
        </mxCell>
        <mxCell id="YOUpktUxaB1BnOb7g7wJ-99" value="Show Ad" style="ellipse;whiteSpace=wrap;html=1;fillColor=#fff2cc;strokeColor=#d6b656;" vertex="1" parent="1">
          <mxGeometry x="1002" y="1640" width="85" height="38.64" as="geometry" />
        </mxCell>
        <mxCell id="YOUpktUxaB1BnOb7g7wJ-115" value="Use in game currency" style="ellipse;whiteSpace=wrap;html=1;fillColor=#fff2cc;strokeColor=#d6b656;" vertex="1" parent="1">
          <mxGeometry x="1108.5" y="2590" width="107" height="50" as="geometry" />
        </mxCell>
        <mxCell id="YOUpktUxaB1BnOb7g7wJ-123" style="rounded=0;orthogonalLoop=1;jettySize=auto;html=1;dashed=1;" edge="1" parent="1" source="YOUpktUxaB1BnOb7g7wJ-116" target="YOUpktUxaB1BnOb7g7wJ-115">
          <mxGeometry relative="1" as="geometry" />
        </mxCell>
        <mxCell id="YOUpktUxaB1BnOb7g7wJ-124" value="Extends" style="edgeLabel;html=1;align=center;verticalAlign=middle;resizable=0;points=[];" vertex="1" connectable="0" parent="YOUpktUxaB1BnOb7g7wJ-123">
          <mxGeometry x="-0.3583" y="1" relative="1" as="geometry">
            <mxPoint as="offset" />
          </mxGeometry>
        </mxCell>
        <mxCell id="YOUpktUxaB1BnOb7g7wJ-116" value="Buy with money" style="ellipse;whiteSpace=wrap;html=1;fillColor=#fff2cc;strokeColor=#d6b656;" vertex="1" parent="1">
          <mxGeometry x="1107.5" y="2400" width="107" height="50" as="geometry" />
        </mxCell>
        <mxCell id="YOUpktUxaB1BnOb7g7wJ-126" style="rounded=0;orthogonalLoop=1;jettySize=auto;html=1;entryX=0;entryY=0;entryDx=0;entryDy=0;dashed=1;" edge="1" parent="1" source="YOUpktUxaB1BnOb7g7wJ-117" target="YOUpktUxaB1BnOb7g7wJ-115">
          <mxGeometry relative="1" as="geometry" />
        </mxCell>
        <mxCell id="YOUpktUxaB1BnOb7g7wJ-127" value="Extends" style="edgeLabel;html=1;align=center;verticalAlign=middle;resizable=0;points=[];" vertex="1" connectable="0" parent="YOUpktUxaB1BnOb7g7wJ-126">
          <mxGeometry x="-0.0772" relative="1" as="geometry">
            <mxPoint as="offset" />
          </mxGeometry>
        </mxCell>
        <mxCell id="YOUpktUxaB1BnOb7g7wJ-117" value="Unlock a lesson" style="ellipse;whiteSpace=wrap;html=1;fillColor=#fff2cc;strokeColor=#d6b656;" vertex="1" parent="1">
          <mxGeometry x="1018.5" y="2489.32" width="107" height="50" as="geometry" />
        </mxCell>
        <mxCell id="YOUpktUxaB1BnOb7g7wJ-119" style="rounded=0;orthogonalLoop=1;jettySize=auto;html=1;endArrow=none;startFill=0;exitX=0;exitY=0.3333333333333333;exitDx=0;exitDy=0;exitPerimeter=0;" edge="1" parent="1" source="YOUpktUxaB1BnOb7g7wJ-118" target="YOUpktUxaB1BnOb7g7wJ-116">
          <mxGeometry relative="1" as="geometry" />
        </mxCell>
        <mxCell id="YOUpktUxaB1BnOb7g7wJ-118" value="&lt;div&gt;Stripe&lt;/div&gt;" style="shape=umlActor;verticalLabelPosition=bottom;verticalAlign=top;html=1;outlineConnect=0;" vertex="1" parent="1">
          <mxGeometry x="1369" y="2360.0000000000005" width="30" height="60" as="geometry" />
        </mxCell>
        <mxCell id="YOUpktUxaB1BnOb7g7wJ-120" value="&lt;div&gt;BDD&lt;/div&gt;" style="shape=umlActor;verticalLabelPosition=bottom;verticalAlign=top;html=1;outlineConnect=0;" vertex="1" parent="1">
          <mxGeometry x="1350" y="2500.0000000000005" width="30" height="60" as="geometry" />
        </mxCell>
        <mxCell id="YOUpktUxaB1BnOb7g7wJ-121" style="rounded=0;orthogonalLoop=1;jettySize=auto;html=1;entryX=1;entryY=0.5;entryDx=0;entryDy=0;endArrow=none;startFill=0;exitX=0;exitY=0.3333333333333333;exitDx=0;exitDy=0;exitPerimeter=0;" edge="1" parent="1" source="YOUpktUxaB1BnOb7g7wJ-120" target="YOUpktUxaB1BnOb7g7wJ-115">
          <mxGeometry relative="1" as="geometry" />
        </mxCell>
        <mxCell id="YOUpktUxaB1BnOb7g7wJ-122" style="rounded=0;orthogonalLoop=1;jettySize=auto;html=1;endArrow=none;startFill=0;exitX=0;exitY=0.3333333333333333;exitDx=0;exitDy=0;exitPerimeter=0;entryX=1;entryY=0.5;entryDx=0;entryDy=0;" edge="1" parent="1" source="YOUpktUxaB1BnOb7g7wJ-120" target="YOUpktUxaB1BnOb7g7wJ-117">
          <mxGeometry relative="1" as="geometry" />
        </mxCell>
        <mxCell id="YOUpktUxaB1BnOb7g7wJ-131" style="rounded=0;orthogonalLoop=1;jettySize=auto;html=1;entryX=1;entryY=0.5;entryDx=0;entryDy=0;dashed=1;" edge="1" parent="1" source="YOUpktUxaB1BnOb7g7wJ-128" target="nZW0ntro5RyZMnnmfriX-58">
          <mxGeometry relative="1" as="geometry" />
        </mxCell>
        <mxCell id="YOUpktUxaB1BnOb7g7wJ-132" value="Extends" style="edgeLabel;html=1;align=center;verticalAlign=middle;resizable=0;points=[];" vertex="1" connectable="0" parent="YOUpktUxaB1BnOb7g7wJ-131">
          <mxGeometry x="0.0281" y="4" relative="1" as="geometry">
            <mxPoint as="offset" />
          </mxGeometry>
        </mxCell>
        <mxCell id="YOUpktUxaB1BnOb7g7wJ-128" value="See comments" style="ellipse;whiteSpace=wrap;html=1;fillColor=#fff2cc;strokeColor=#d6b656;" vertex="1" parent="1">
          <mxGeometry x="484" y="1120" width="85" height="38.64" as="geometry" />
        </mxCell>
        <mxCell id="YOUpktUxaB1BnOb7g7wJ-130" style="rounded=0;orthogonalLoop=1;jettySize=auto;html=1;entryX=0;entryY=0.5;entryDx=0;entryDy=0;endArrow=none;startFill=0;" edge="1" parent="1" target="YOUpktUxaB1BnOb7g7wJ-128">
          <mxGeometry relative="1" as="geometry">
            <mxPoint x="73" y="1300" as="sourcePoint" />
          </mxGeometry>
        </mxCell>
        <mxCell id="YOUpktUxaB1BnOb7g7wJ-133" value="&lt;font style=&quot;font-size: 20px;&quot;&gt;Login&lt;/font&gt;" style="text;html=1;align=center;verticalAlign=middle;whiteSpace=wrap;rounded=0;" vertex="1" parent="1">
          <mxGeometry x="336" y="480" width="104" height="30" as="geometry" />
        </mxCell>
        <mxCell id="YOUpktUxaB1BnOb7g7wJ-134" value="&lt;font style=&quot;font-size: 20px;&quot;&gt;Main features&lt;/font&gt;" style="text;html=1;align=center;verticalAlign=middle;whiteSpace=wrap;rounded=0;" vertex="1" parent="1">
          <mxGeometry x="786" y="80" width="104" height="30" as="geometry" />
        </mxCell>
        <mxCell id="YOUpktUxaB1BnOb7g7wJ-135" value="&lt;font style=&quot;font-size: 20px;&quot;&gt;Sign up&lt;/font&gt;" style="text;html=1;align=center;verticalAlign=middle;whiteSpace=wrap;rounded=0;" vertex="1" parent="1">
          <mxGeometry x="1052.5" y="470" width="104" height="30" as="geometry" />
        </mxCell>
        <mxCell id="YOUpktUxaB1BnOb7g7wJ-136" value="&lt;span style=&quot;font-size: 20px;&quot;&gt;Training&lt;/span&gt;" style="text;html=1;align=center;verticalAlign=middle;whiteSpace=wrap;rounded=0;" vertex="1" parent="1">
          <mxGeometry x="1086.5" y="1090" width="104" height="30" as="geometry" />
        </mxCell>
        <mxCell id="YOUpktUxaB1BnOb7g7wJ-137" value="&lt;span style=&quot;font-size: 20px;&quot;&gt;Lesson&lt;/span&gt;" style="text;html=1;align=center;verticalAlign=middle;whiteSpace=wrap;rounded=0;" vertex="1" parent="1">
          <mxGeometry x="345.5" y="1030" width="104" height="30" as="geometry" />
        </mxCell>
        <mxCell id="YOUpktUxaB1BnOb7g7wJ-138" value="&lt;span style=&quot;font-size: 20px;&quot;&gt;Lesson Creation&lt;/span&gt;" style="text;html=1;align=center;verticalAlign=middle;whiteSpace=wrap;rounded=0;" vertex="1" parent="1">
          <mxGeometry x="326.5" y="1774.3600000000001" width="104" height="30" as="geometry" />
        </mxCell>
        <mxCell id="YOUpktUxaB1BnOb7g7wJ-139" value="&lt;span style=&quot;font-size: 20px;&quot;&gt;Life buying&lt;/span&gt;" style="text;html=1;align=center;verticalAlign=middle;whiteSpace=wrap;rounded=0;" vertex="1" parent="1">
          <mxGeometry x="1097.5" y="1849.3200000000002" width="104" height="30" as="geometry" />
        </mxCell>
        <mxCell id="YOUpktUxaB1BnOb7g7wJ-140" value="&lt;span style=&quot;font-size: 20px;&quot;&gt;Currency Usage&lt;/span&gt;" style="text;html=1;align=center;verticalAlign=middle;whiteSpace=wrap;rounded=0;" vertex="1" parent="1">
          <mxGeometry x="1107.5" y="2300" width="104" height="30" as="geometry" />
        </mxCell>
        <mxCell id="YOUpktUxaB1BnOb7g7wJ-141" value="" style="rounded=0;whiteSpace=wrap;html=1;fillColor=#dae8fc;strokeColor=#6c8ebf;" vertex="1" parent="1">
          <mxGeometry x="215.5" y="1849.32" width="340" height="580" as="geometry" />
        </mxCell>
        <mxCell id="YOUpktUxaB1BnOb7g7wJ-142" style="rounded=0;orthogonalLoop=1;jettySize=auto;html=1;entryX=0;entryY=0.5;entryDx=0;entryDy=0;exitX=1;exitY=0.3333333333333333;exitDx=0;exitDy=0;exitPerimeter=0;endArrow=none;startFill=0;" edge="1" parent="1" source="YOUpktUxaB1BnOb7g7wJ-247" target="YOUpktUxaB1BnOb7g7wJ-222">
          <mxGeometry relative="1" as="geometry" />
        </mxCell>
        <mxCell id="YOUpktUxaB1BnOb7g7wJ-143" value="&lt;font style=&quot;font-size: 23px;&quot;&gt;Use case Diagram&lt;/font&gt;" style="text;html=1;align=center;verticalAlign=middle;whiteSpace=wrap;rounded=0;" vertex="1" parent="1">
          <mxGeometry x="309" y="10" width="210" height="30" as="geometry" />
        </mxCell>
        <mxCell id="YOUpktUxaB1BnOb7g7wJ-144" value="" style="rounded=0;whiteSpace=wrap;html=1;fillColor=#dae8fc;strokeColor=#6c8ebf;" vertex="1" parent="1">
          <mxGeometry x="758.5" y="130" width="140" height="345" as="geometry" />
        </mxCell>
        <mxCell id="YOUpktUxaB1BnOb7g7wJ-145" value="&lt;div&gt;BDD&lt;/div&gt;" style="shape=umlActor;verticalLabelPosition=bottom;verticalAlign=top;html=1;outlineConnect=0;" vertex="1" parent="1">
          <mxGeometry x="988.5" y="272.5" width="30" height="60" as="geometry" />
        </mxCell>
        <mxCell id="YOUpktUxaB1BnOb7g7wJ-146" value="Login" style="ellipse;whiteSpace=wrap;html=1;fillColor=#fff2cc;strokeColor=#d6b656;" vertex="1" parent="1">
          <mxGeometry x="786" y="182.5" width="85" height="38.64" as="geometry" />
        </mxCell>
        <mxCell id="YOUpktUxaB1BnOb7g7wJ-147" value="Lessons" style="ellipse;whiteSpace=wrap;html=1;fillColor=#fff2cc;strokeColor=#d6b656;" vertex="1" parent="1">
          <mxGeometry x="786" y="272.5" width="85" height="38.64" as="geometry" />
        </mxCell>
        <mxCell id="YOUpktUxaB1BnOb7g7wJ-148" value="Exercices" style="ellipse;whiteSpace=wrap;html=1;fillColor=#fff2cc;strokeColor=#d6b656;" vertex="1" parent="1">
          <mxGeometry x="786" y="353.18" width="85" height="38.64" as="geometry" />
        </mxCell>
        <mxCell id="YOUpktUxaB1BnOb7g7wJ-149" style="rounded=0;orthogonalLoop=1;jettySize=auto;html=1;endArrow=none;startFill=0;exitX=1;exitY=0.3333333333333333;exitDx=0;exitDy=0;exitPerimeter=0;" edge="1" parent="1" source="YOUpktUxaB1BnOb7g7wJ-152" target="YOUpktUxaB1BnOb7g7wJ-146">
          <mxGeometry relative="1" as="geometry">
            <mxPoint x="668.5" y="242.5" as="sourcePoint" />
          </mxGeometry>
        </mxCell>
        <mxCell id="YOUpktUxaB1BnOb7g7wJ-150" style="rounded=0;orthogonalLoop=1;jettySize=auto;html=1;endArrow=none;startFill=0;exitX=1;exitY=0.3333333333333333;exitDx=0;exitDy=0;exitPerimeter=0;" edge="1" parent="1" source="YOUpktUxaB1BnOb7g7wJ-152" target="YOUpktUxaB1BnOb7g7wJ-147">
          <mxGeometry relative="1" as="geometry">
            <mxPoint x="648.5" y="222.5" as="sourcePoint" />
          </mxGeometry>
        </mxCell>
        <mxCell id="YOUpktUxaB1BnOb7g7wJ-151" style="rounded=0;orthogonalLoop=1;jettySize=auto;html=1;entryX=0;entryY=0.5;entryDx=0;entryDy=0;endArrow=none;startFill=0;exitX=1;exitY=0.3333333333333333;exitDx=0;exitDy=0;exitPerimeter=0;" edge="1" parent="1" source="YOUpktUxaB1BnOb7g7wJ-152" target="YOUpktUxaB1BnOb7g7wJ-148">
          <mxGeometry relative="1" as="geometry">
            <mxPoint x="668.5" y="242.5" as="sourcePoint" />
          </mxGeometry>
        </mxCell>
        <mxCell id="YOUpktUxaB1BnOb7g7wJ-152" value="&lt;div&gt;User&lt;/div&gt;" style="shape=umlActor;verticalLabelPosition=bottom;verticalAlign=top;html=1;outlineConnect=0;" vertex="1" parent="1">
          <mxGeometry x="638.5" y="293.18" width="30" height="60" as="geometry" />
        </mxCell>
        <mxCell id="YOUpktUxaB1BnOb7g7wJ-153" style="rounded=0;orthogonalLoop=1;jettySize=auto;html=1;endArrow=none;startFill=0;entryX=1;entryY=0.5;entryDx=0;entryDy=0;exitX=0;exitY=0.3333333333333333;exitDx=0;exitDy=0;exitPerimeter=0;" edge="1" parent="1" source="YOUpktUxaB1BnOb7g7wJ-145" target="YOUpktUxaB1BnOb7g7wJ-146">
          <mxGeometry relative="1" as="geometry">
            <mxPoint x="998.5" y="282.5" as="sourcePoint" />
            <mxPoint x="821.5" y="282.5" as="targetPoint" />
          </mxGeometry>
        </mxCell>
        <mxCell id="YOUpktUxaB1BnOb7g7wJ-154" style="rounded=0;orthogonalLoop=1;jettySize=auto;html=1;endArrow=none;startFill=0;entryX=1;entryY=0.5;entryDx=0;entryDy=0;exitX=0;exitY=0.3333333333333333;exitDx=0;exitDy=0;exitPerimeter=0;" edge="1" parent="1" source="YOUpktUxaB1BnOb7g7wJ-145" target="YOUpktUxaB1BnOb7g7wJ-147">
          <mxGeometry relative="1" as="geometry">
            <mxPoint x="998.5" y="282.5" as="sourcePoint" />
            <mxPoint x="823.5" y="352.5" as="targetPoint" />
          </mxGeometry>
        </mxCell>
        <mxCell id="YOUpktUxaB1BnOb7g7wJ-155" style="rounded=0;orthogonalLoop=1;jettySize=auto;html=1;entryX=1;entryY=0.5;entryDx=0;entryDy=0;endArrow=none;startFill=0;exitX=0;exitY=0.3333333333333333;exitDx=0;exitDy=0;exitPerimeter=0;" edge="1" parent="1" source="YOUpktUxaB1BnOb7g7wJ-145" target="YOUpktUxaB1BnOb7g7wJ-148">
          <mxGeometry relative="1" as="geometry">
            <mxPoint x="698.5" y="313.5" as="sourcePoint" />
            <mxPoint x="816.5" y="443.5" as="targetPoint" />
          </mxGeometry>
        </mxCell>
        <mxCell id="YOUpktUxaB1BnOb7g7wJ-156" value="" style="rounded=0;whiteSpace=wrap;html=1;fillColor=#dae8fc;strokeColor=#6c8ebf;" vertex="1" parent="1">
          <mxGeometry x="221" y="530" width="370" height="435.68" as="geometry" />
        </mxCell>
        <mxCell id="YOUpktUxaB1BnOb7g7wJ-157" style="rounded=0;orthogonalLoop=1;jettySize=auto;html=1;entryX=1;entryY=0.5;entryDx=0;entryDy=0;endArrow=none;startFill=0;exitX=0;exitY=0.3333333333333333;exitDx=0;exitDy=0;exitPerimeter=0;" edge="1" parent="1" source="YOUpktUxaB1BnOb7g7wJ-159" target="YOUpktUxaB1BnOb7g7wJ-174">
          <mxGeometry relative="1" as="geometry" />
        </mxCell>
        <mxCell id="YOUpktUxaB1BnOb7g7wJ-158" style="rounded=0;orthogonalLoop=1;jettySize=auto;html=1;entryX=1;entryY=0.5;entryDx=0;entryDy=0;endArrow=none;startFill=0;exitX=0;exitY=0.3333333333333333;exitDx=0;exitDy=0;exitPerimeter=0;" edge="1" parent="1" source="YOUpktUxaB1BnOb7g7wJ-159" target="YOUpktUxaB1BnOb7g7wJ-165">
          <mxGeometry relative="1" as="geometry" />
        </mxCell>
        <mxCell id="YOUpktUxaB1BnOb7g7wJ-159" value="&lt;div&gt;BDD&lt;/div&gt;" style="shape=umlActor;verticalLabelPosition=bottom;verticalAlign=top;html=1;outlineConnect=0;" vertex="1" parent="1">
          <mxGeometry x="660" y="784.32" width="30" height="60" as="geometry" />
        </mxCell>
        <mxCell id="YOUpktUxaB1BnOb7g7wJ-160" style="rounded=0;orthogonalLoop=1;jettySize=auto;html=1;endArrow=none;startFill=0;exitX=1;exitY=0.3333333333333333;exitDx=0;exitDy=0;exitPerimeter=0;" edge="1" parent="1" source="YOUpktUxaB1BnOb7g7wJ-162" target="YOUpktUxaB1BnOb7g7wJ-168">
          <mxGeometry relative="1" as="geometry" />
        </mxCell>
        <mxCell id="YOUpktUxaB1BnOb7g7wJ-161" style="rounded=0;orthogonalLoop=1;jettySize=auto;html=1;entryX=0;entryY=0.5;entryDx=0;entryDy=0;exitX=1;exitY=0.3333333333333333;exitDx=0;exitDy=0;exitPerimeter=0;endArrow=none;startFill=0;" edge="1" parent="1" source="YOUpktUxaB1BnOb7g7wJ-162" target="YOUpktUxaB1BnOb7g7wJ-165">
          <mxGeometry relative="1" as="geometry" />
        </mxCell>
        <mxCell id="YOUpktUxaB1BnOb7g7wJ-162" value="&lt;div&gt;User&lt;/div&gt;" style="shape=umlActor;verticalLabelPosition=bottom;verticalAlign=top;html=1;outlineConnect=0;" vertex="1" parent="1">
          <mxGeometry x="151" y="717.84" width="30" height="60" as="geometry" />
        </mxCell>
        <mxCell id="YOUpktUxaB1BnOb7g7wJ-163" style="rounded=0;orthogonalLoop=1;jettySize=auto;html=1;exitX=0;exitY=1;exitDx=0;exitDy=0;dashed=1;" edge="1" parent="1" source="YOUpktUxaB1BnOb7g7wJ-170" target="YOUpktUxaB1BnOb7g7wJ-165">
          <mxGeometry relative="1" as="geometry" />
        </mxCell>
        <mxCell id="YOUpktUxaB1BnOb7g7wJ-164" value="Extends" style="edgeLabel;html=1;align=center;verticalAlign=middle;resizable=0;points=[];" vertex="1" connectable="0" parent="YOUpktUxaB1BnOb7g7wJ-163">
          <mxGeometry x="0.0847" relative="1" as="geometry">
            <mxPoint as="offset" />
          </mxGeometry>
        </mxCell>
        <mxCell id="YOUpktUxaB1BnOb7g7wJ-165" value="Login" style="ellipse;whiteSpace=wrap;html=1;fillColor=#fff2cc;strokeColor=#d6b656;" vertex="1" parent="1">
          <mxGeometry x="321" y="882.84" width="85" height="38.64" as="geometry" />
        </mxCell>
        <mxCell id="YOUpktUxaB1BnOb7g7wJ-166" style="rounded=0;orthogonalLoop=1;jettySize=auto;html=1;exitX=0.5;exitY=1;exitDx=0;exitDy=0;" edge="1" parent="1" source="YOUpktUxaB1BnOb7g7wJ-168" target="YOUpktUxaB1BnOb7g7wJ-165">
          <mxGeometry relative="1" as="geometry" />
        </mxCell>
        <mxCell id="YOUpktUxaB1BnOb7g7wJ-167" value="Include" style="edgeLabel;html=1;align=center;verticalAlign=middle;resizable=0;points=[];" vertex="1" connectable="0" parent="YOUpktUxaB1BnOb7g7wJ-166">
          <mxGeometry x="0.0156" relative="1" as="geometry">
            <mxPoint as="offset" />
          </mxGeometry>
        </mxCell>
        <mxCell id="YOUpktUxaB1BnOb7g7wJ-168" value="Create Account" style="ellipse;whiteSpace=wrap;html=1;fillColor=#fff2cc;strokeColor=#d6b656;" vertex="1" parent="1">
          <mxGeometry x="232.5" y="680" width="130" height="48.64" as="geometry" />
        </mxCell>
        <mxCell id="YOUpktUxaB1BnOb7g7wJ-169" value="&lt;font style=&quot;font-size: 10px;&quot;&gt;{if user don&#39;t have an account}&lt;/font&gt;" style="text;html=1;align=center;verticalAlign=middle;whiteSpace=wrap;rounded=0;" vertex="1" parent="1">
          <mxGeometry x="241" y="631.48" width="90" height="30" as="geometry" />
        </mxCell>
        <mxCell id="YOUpktUxaB1BnOb7g7wJ-170" value="Go to homepage" style="ellipse;whiteSpace=wrap;html=1;fillColor=#fff2cc;strokeColor=#d6b656;" vertex="1" parent="1">
          <mxGeometry x="406" y="592.84" width="85" height="38.64" as="geometry" />
        </mxCell>
        <mxCell id="YOUpktUxaB1BnOb7g7wJ-171" value="&lt;font style=&quot;font-size: 10px;&quot;&gt;{if user entered correct credentials}&lt;/font&gt;" style="text;html=1;align=center;verticalAlign=middle;whiteSpace=wrap;rounded=0;" vertex="1" parent="1">
          <mxGeometry x="411" y="557.84" width="90" height="30" as="geometry" />
        </mxCell>
        <mxCell id="YOUpktUxaB1BnOb7g7wJ-172" style="rounded=0;orthogonalLoop=1;jettySize=auto;html=1;entryX=1;entryY=0;entryDx=0;entryDy=0;dashed=1;" edge="1" parent="1" source="YOUpktUxaB1BnOb7g7wJ-174" target="YOUpktUxaB1BnOb7g7wJ-165">
          <mxGeometry relative="1" as="geometry" />
        </mxCell>
        <mxCell id="YOUpktUxaB1BnOb7g7wJ-173" value="Extends" style="edgeLabel;html=1;align=center;verticalAlign=middle;resizable=0;points=[];" vertex="1" connectable="0" parent="YOUpktUxaB1BnOb7g7wJ-172">
          <mxGeometry x="-0.0873" relative="1" as="geometry">
            <mxPoint as="offset" />
          </mxGeometry>
        </mxCell>
        <mxCell id="YOUpktUxaB1BnOb7g7wJ-174" value="Show Error Message" style="ellipse;whiteSpace=wrap;html=1;fillColor=#fff2cc;strokeColor=#d6b656;" vertex="1" parent="1">
          <mxGeometry x="461" y="795.0000000000001" width="85" height="38.64" as="geometry" />
        </mxCell>
        <mxCell id="YOUpktUxaB1BnOb7g7wJ-175" value="&lt;font style=&quot;font-size: 10px;&quot;&gt;{if user entered wrong credentials}&lt;/font&gt;" style="text;html=1;align=center;verticalAlign=middle;whiteSpace=wrap;rounded=0;" vertex="1" parent="1">
          <mxGeometry x="460" y="765" width="90" height="30" as="geometry" />
        </mxCell>
        <mxCell id="YOUpktUxaB1BnOb7g7wJ-176" style="rounded=0;orthogonalLoop=1;jettySize=auto;html=1;entryX=1;entryY=0.5;entryDx=0;entryDy=0;endArrow=none;startFill=0;exitX=0;exitY=0.3333333333333333;exitDx=0;exitDy=0;exitPerimeter=0;" edge="1" parent="1" source="YOUpktUxaB1BnOb7g7wJ-159" target="YOUpktUxaB1BnOb7g7wJ-168">
          <mxGeometry relative="1" as="geometry">
            <mxPoint x="815" y="812.84" as="sourcePoint" />
            <mxPoint x="591" y="928.84" as="targetPoint" />
          </mxGeometry>
        </mxCell>
        <mxCell id="YOUpktUxaB1BnOb7g7wJ-177" style="rounded=0;orthogonalLoop=1;jettySize=auto;html=1;entryX=1;entryY=0.5;entryDx=0;entryDy=0;endArrow=none;startFill=0;exitX=0;exitY=0.3333333333333333;exitDx=0;exitDy=0;exitPerimeter=0;" edge="1" parent="1" source="YOUpktUxaB1BnOb7g7wJ-178" target="YOUpktUxaB1BnOb7g7wJ-170">
          <mxGeometry relative="1" as="geometry">
            <Array as="points" />
          </mxGeometry>
        </mxCell>
        <mxCell id="YOUpktUxaB1BnOb7g7wJ-178" value="Router" style="shape=umlActor;verticalLabelPosition=bottom;verticalAlign=top;html=1;outlineConnect=0;" vertex="1" parent="1">
          <mxGeometry x="660" y="631.4800000000001" width="30" height="60" as="geometry" />
        </mxCell>
        <mxCell id="YOUpktUxaB1BnOb7g7wJ-179" value="&lt;div&gt;User&lt;/div&gt;" style="shape=umlActor;verticalLabelPosition=bottom;verticalAlign=top;html=1;outlineConnect=0;" vertex="1" parent="1">
          <mxGeometry x="33" y="1280" width="30" height="60" as="geometry" />
        </mxCell>
        <mxCell id="YOUpktUxaB1BnOb7g7wJ-180" value="&lt;div&gt;BDD&lt;/div&gt;" style="shape=umlActor;verticalLabelPosition=bottom;verticalAlign=top;html=1;outlineConnect=0;" vertex="1" parent="1">
          <mxGeometry x="693" y="1219.9999999999998" width="30" height="60" as="geometry" />
        </mxCell>
        <mxCell id="YOUpktUxaB1BnOb7g7wJ-181" value="" style="rounded=0;whiteSpace=wrap;html=1;fillColor=#dae8fc;strokeColor=#6c8ebf;" vertex="1" parent="1">
          <mxGeometry x="160.5" y="1080" width="502.5" height="520" as="geometry" />
        </mxCell>
        <mxCell id="YOUpktUxaB1BnOb7g7wJ-182" style="rounded=0;orthogonalLoop=1;jettySize=auto;html=1;endArrow=classic;startFill=0;endFill=1;" edge="1" parent="1" source="YOUpktUxaB1BnOb7g7wJ-184" target="YOUpktUxaB1BnOb7g7wJ-190">
          <mxGeometry relative="1" as="geometry" />
        </mxCell>
        <mxCell id="YOUpktUxaB1BnOb7g7wJ-183" value="Include" style="edgeLabel;html=1;align=center;verticalAlign=middle;resizable=0;points=[];" vertex="1" connectable="0" parent="YOUpktUxaB1BnOb7g7wJ-182">
          <mxGeometry x="-0.1197" y="2" relative="1" as="geometry">
            <mxPoint as="offset" />
          </mxGeometry>
        </mxCell>
        <mxCell id="YOUpktUxaB1BnOb7g7wJ-184" value="Lessons" style="ellipse;whiteSpace=wrap;html=1;fillColor=#fff2cc;strokeColor=#d6b656;" vertex="1" parent="1">
          <mxGeometry x="345.5" y="1204.32" width="85" height="38.64" as="geometry" />
        </mxCell>
        <mxCell id="YOUpktUxaB1BnOb7g7wJ-185" style="rounded=0;orthogonalLoop=1;jettySize=auto;html=1;dashed=1;" edge="1" parent="1" source="YOUpktUxaB1BnOb7g7wJ-187" target="YOUpktUxaB1BnOb7g7wJ-184">
          <mxGeometry relative="1" as="geometry" />
        </mxCell>
        <mxCell id="YOUpktUxaB1BnOb7g7wJ-186" value="Extends" style="edgeLabel;html=1;align=center;verticalAlign=middle;resizable=0;points=[];" vertex="1" connectable="0" parent="YOUpktUxaB1BnOb7g7wJ-185">
          <mxGeometry x="-0.3952" relative="1" as="geometry">
            <mxPoint as="offset" />
          </mxGeometry>
        </mxCell>
        <mxCell id="YOUpktUxaB1BnOb7g7wJ-187" value="Create Lesson" style="ellipse;whiteSpace=wrap;html=1;fillColor=#fff2cc;strokeColor=#d6b656;" vertex="1" parent="1">
          <mxGeometry x="253" y="1120.0000000000002" width="85" height="38.64" as="geometry" />
        </mxCell>
        <mxCell id="YOUpktUxaB1BnOb7g7wJ-188" style="rounded=0;orthogonalLoop=1;jettySize=auto;html=1;dashed=1;entryX=1;entryY=0.5;entryDx=0;entryDy=0;" edge="1" parent="1" source="YOUpktUxaB1BnOb7g7wJ-314" target="YOUpktUxaB1BnOb7g7wJ-197">
          <mxGeometry relative="1" as="geometry" />
        </mxCell>
        <mxCell id="YOUpktUxaB1BnOb7g7wJ-189" value="Extends" style="edgeLabel;html=1;align=center;verticalAlign=middle;resizable=0;points=[];" vertex="1" connectable="0" parent="YOUpktUxaB1BnOb7g7wJ-188">
          <mxGeometry x="-0.323" y="3" relative="1" as="geometry">
            <mxPoint x="-1" y="-5" as="offset" />
          </mxGeometry>
        </mxCell>
        <mxCell id="YOUpktUxaB1BnOb7g7wJ-190" value="See Lesson" style="ellipse;whiteSpace=wrap;html=1;fillColor=#fff2cc;strokeColor=#d6b656;" vertex="1" parent="1">
          <mxGeometry x="378" y="1390" width="85" height="38.64" as="geometry" />
        </mxCell>
        <mxCell id="YOUpktUxaB1BnOb7g7wJ-191" style="rounded=0;orthogonalLoop=1;jettySize=auto;html=1;dashed=1;entryX=1;entryY=0.5;entryDx=0;entryDy=0;" edge="1" parent="1" source="YOUpktUxaB1BnOb7g7wJ-193" target="YOUpktUxaB1BnOb7g7wJ-190">
          <mxGeometry relative="1" as="geometry" />
        </mxCell>
        <mxCell id="YOUpktUxaB1BnOb7g7wJ-192" value="Extends" style="edgeLabel;html=1;align=center;verticalAlign=middle;resizable=0;points=[];" vertex="1" connectable="0" parent="YOUpktUxaB1BnOb7g7wJ-191">
          <mxGeometry x="0.0253" relative="1" as="geometry">
            <mxPoint as="offset" />
          </mxGeometry>
        </mxCell>
        <mxCell id="YOUpktUxaB1BnOb7g7wJ-193" value="Show next slide" style="ellipse;whiteSpace=wrap;html=1;fillColor=#fff2cc;strokeColor=#d6b656;" vertex="1" parent="1">
          <mxGeometry x="523" y="1420.6799999999998" width="85" height="38.64" as="geometry" />
        </mxCell>
        <mxCell id="YOUpktUxaB1BnOb7g7wJ-194" value="Show Previous slide" style="ellipse;whiteSpace=wrap;html=1;fillColor=#fff2cc;strokeColor=#d6b656;" vertex="1" parent="1">
          <mxGeometry x="363" y="1512.16" width="115" height="38.64" as="geometry" />
        </mxCell>
        <mxCell id="YOUpktUxaB1BnOb7g7wJ-195" style="rounded=0;orthogonalLoop=1;jettySize=auto;html=1;" edge="1" parent="1" source="YOUpktUxaB1BnOb7g7wJ-190" target="YOUpktUxaB1BnOb7g7wJ-197">
          <mxGeometry relative="1" as="geometry" />
        </mxCell>
        <mxCell id="YOUpktUxaB1BnOb7g7wJ-196" value="Include" style="edgeLabel;html=1;align=center;verticalAlign=middle;resizable=0;points=[];" vertex="1" connectable="0" parent="YOUpktUxaB1BnOb7g7wJ-195">
          <mxGeometry x="-0.0062" y="-1" relative="1" as="geometry">
            <mxPoint as="offset" />
          </mxGeometry>
        </mxCell>
        <mxCell id="YOUpktUxaB1BnOb7g7wJ-197" value="Unlock next lesson" style="ellipse;whiteSpace=wrap;html=1;fillColor=#fff2cc;strokeColor=#d6b656;" vertex="1" parent="1">
          <mxGeometry x="173" y="1290.68" width="93.5" height="38.64" as="geometry" />
        </mxCell>
        <mxCell id="YOUpktUxaB1BnOb7g7wJ-198" style="rounded=0;orthogonalLoop=1;jettySize=auto;html=1;entryX=1;entryY=1;entryDx=0;entryDy=0;dashed=1;" edge="1" parent="1" source="YOUpktUxaB1BnOb7g7wJ-194" target="YOUpktUxaB1BnOb7g7wJ-190">
          <mxGeometry relative="1" as="geometry" />
        </mxCell>
        <mxCell id="YOUpktUxaB1BnOb7g7wJ-199" value="Extends" style="edgeLabel;html=1;align=center;verticalAlign=middle;resizable=0;points=[];" vertex="1" connectable="0" parent="YOUpktUxaB1BnOb7g7wJ-198">
          <mxGeometry x="-0.1266" y="-1" relative="1" as="geometry">
            <mxPoint as="offset" />
          </mxGeometry>
        </mxCell>
        <mxCell id="YOUpktUxaB1BnOb7g7wJ-200" value="Create Lesson" style="ellipse;whiteSpace=wrap;html=1;fillColor=#fff2cc;strokeColor=#d6b656;" vertex="1" parent="1">
          <mxGeometry x="338" y="2169.3199999999997" width="85" height="38.64" as="geometry" />
        </mxCell>
        <mxCell id="YOUpktUxaB1BnOb7g7wJ-201" style="rounded=0;orthogonalLoop=1;jettySize=auto;html=1;dashed=1;" edge="1" parent="1" source="YOUpktUxaB1BnOb7g7wJ-203" target="YOUpktUxaB1BnOb7g7wJ-200">
          <mxGeometry relative="1" as="geometry" />
        </mxCell>
        <mxCell id="YOUpktUxaB1BnOb7g7wJ-202" value="Extends" style="edgeLabel;html=1;align=center;verticalAlign=middle;resizable=0;points=[];" vertex="1" connectable="0" parent="YOUpktUxaB1BnOb7g7wJ-201">
          <mxGeometry x="-0.2495" y="-1" relative="1" as="geometry">
            <mxPoint as="offset" />
          </mxGeometry>
        </mxCell>
        <mxCell id="YOUpktUxaB1BnOb7g7wJ-203" value="Archive Lesson" style="ellipse;whiteSpace=wrap;html=1;fillColor=#fff2cc;strokeColor=#d6b656;" vertex="1" parent="1">
          <mxGeometry x="335.5" y="2269.32" width="85" height="38.64" as="geometry" />
        </mxCell>
        <mxCell id="YOUpktUxaB1BnOb7g7wJ-204" style="rounded=0;orthogonalLoop=1;jettySize=auto;html=1;dashed=1;" edge="1" parent="1" source="YOUpktUxaB1BnOb7g7wJ-208" target="YOUpktUxaB1BnOb7g7wJ-200">
          <mxGeometry relative="1" as="geometry" />
        </mxCell>
        <mxCell id="YOUpktUxaB1BnOb7g7wJ-205" value="Extends" style="edgeLabel;html=1;align=center;verticalAlign=middle;resizable=0;points=[];" vertex="1" connectable="0" parent="YOUpktUxaB1BnOb7g7wJ-204">
          <mxGeometry x="-0.2543" y="-2" relative="1" as="geometry">
            <mxPoint as="offset" />
          </mxGeometry>
        </mxCell>
        <mxCell id="YOUpktUxaB1BnOb7g7wJ-206" style="edgeStyle=orthogonalEdgeStyle;rounded=0;orthogonalLoop=1;jettySize=auto;html=1;dashed=1;" edge="1" parent="1" source="YOUpktUxaB1BnOb7g7wJ-212" target="YOUpktUxaB1BnOb7g7wJ-208">
          <mxGeometry relative="1" as="geometry" />
        </mxCell>
        <mxCell id="YOUpktUxaB1BnOb7g7wJ-207" value="Extends" style="edgeLabel;html=1;align=center;verticalAlign=middle;resizable=0;points=[];" vertex="1" connectable="0" parent="YOUpktUxaB1BnOb7g7wJ-206">
          <mxGeometry x="-0.1122" relative="1" as="geometry">
            <mxPoint as="offset" />
          </mxGeometry>
        </mxCell>
        <mxCell id="YOUpktUxaB1BnOb7g7wJ-208" value="Suggest Lesson" style="ellipse;whiteSpace=wrap;html=1;fillColor=#fff2cc;strokeColor=#d6b656;" vertex="1" parent="1">
          <mxGeometry x="338" y="2099.32" width="85" height="38.64" as="geometry" />
        </mxCell>
        <mxCell id="YOUpktUxaB1BnOb7g7wJ-209" value="Publish Lesson" style="ellipse;whiteSpace=wrap;html=1;fillColor=#fff2cc;strokeColor=#d6b656;" vertex="1" parent="1">
          <mxGeometry x="335.5" y="1944.6799999999998" width="85" height="38.64" as="geometry" />
        </mxCell>
        <mxCell id="YOUpktUxaB1BnOb7g7wJ-210" style="rounded=0;orthogonalLoop=1;jettySize=auto;html=1;" edge="1" parent="1" source="YOUpktUxaB1BnOb7g7wJ-212" target="YOUpktUxaB1BnOb7g7wJ-209">
          <mxGeometry relative="1" as="geometry" />
        </mxCell>
        <mxCell id="YOUpktUxaB1BnOb7g7wJ-211" value="Includes" style="edgeLabel;html=1;align=center;verticalAlign=middle;resizable=0;points=[];" vertex="1" connectable="0" parent="YOUpktUxaB1BnOb7g7wJ-210">
          <mxGeometry x="-0.0492" relative="1" as="geometry">
            <mxPoint as="offset" />
          </mxGeometry>
        </mxCell>
        <mxCell id="YOUpktUxaB1BnOb7g7wJ-212" value="Vote a Lesson" style="ellipse;whiteSpace=wrap;html=1;fillColor=#fff2cc;strokeColor=#d6b656;" vertex="1" parent="1">
          <mxGeometry x="338" y="2019.32" width="85" height="38.64" as="geometry" />
        </mxCell>
        <mxCell id="YOUpktUxaB1BnOb7g7wJ-213" style="rounded=0;orthogonalLoop=1;jettySize=auto;html=1;entryX=0.68;entryY=0.936;entryDx=0;entryDy=0;dashed=1;entryPerimeter=0;" edge="1" parent="1" source="YOUpktUxaB1BnOb7g7wJ-215" target="YOUpktUxaB1BnOb7g7wJ-203">
          <mxGeometry relative="1" as="geometry" />
        </mxCell>
        <mxCell id="YOUpktUxaB1BnOb7g7wJ-214" value="Extends" style="edgeLabel;html=1;align=center;verticalAlign=middle;resizable=0;points=[];" vertex="1" connectable="0" parent="YOUpktUxaB1BnOb7g7wJ-213">
          <mxGeometry x="0.0139" y="3" relative="1" as="geometry">
            <mxPoint x="1" as="offset" />
          </mxGeometry>
        </mxCell>
        <mxCell id="YOUpktUxaB1BnOb7g7wJ-215" value="Edit Archive" style="ellipse;whiteSpace=wrap;html=1;fillColor=#fff2cc;strokeColor=#d6b656;" vertex="1" parent="1">
          <mxGeometry x="359" y="2379.3199999999997" width="85" height="38.64" as="geometry" />
        </mxCell>
        <mxCell id="YOUpktUxaB1BnOb7g7wJ-216" value="Delete Archive" style="ellipse;whiteSpace=wrap;html=1;fillColor=#fff2cc;strokeColor=#d6b656;" vertex="1" parent="1">
          <mxGeometry x="433" y="2130.6799999999994" width="85" height="38.64" as="geometry" />
        </mxCell>
        <mxCell id="YOUpktUxaB1BnOb7g7wJ-217" style="rounded=0;orthogonalLoop=1;jettySize=auto;html=1;dashed=1;" edge="1" parent="1" source="YOUpktUxaB1BnOb7g7wJ-219" target="YOUpktUxaB1BnOb7g7wJ-209">
          <mxGeometry relative="1" as="geometry" />
        </mxCell>
        <mxCell id="YOUpktUxaB1BnOb7g7wJ-218" value="Extends" style="edgeLabel;html=1;align=center;verticalAlign=middle;resizable=0;points=[];" vertex="1" connectable="0" parent="YOUpktUxaB1BnOb7g7wJ-217">
          <mxGeometry x="-0.122" relative="1" as="geometry">
            <mxPoint as="offset" />
          </mxGeometry>
        </mxCell>
        <mxCell id="YOUpktUxaB1BnOb7g7wJ-219" value="Edit Lesson" style="ellipse;whiteSpace=wrap;html=1;fillColor=#fff2cc;strokeColor=#d6b656;" vertex="1" parent="1">
          <mxGeometry x="258" y="1879.32" width="85" height="38.64" as="geometry" />
        </mxCell>
        <mxCell id="YOUpktUxaB1BnOb7g7wJ-220" style="rounded=0;orthogonalLoop=1;jettySize=auto;html=1;entryX=1;entryY=0;entryDx=0;entryDy=0;dashed=1;" edge="1" parent="1" source="YOUpktUxaB1BnOb7g7wJ-222" target="YOUpktUxaB1BnOb7g7wJ-209">
          <mxGeometry relative="1" as="geometry" />
        </mxCell>
        <mxCell id="YOUpktUxaB1BnOb7g7wJ-221" value="Extends" style="edgeLabel;html=1;align=center;verticalAlign=middle;resizable=0;points=[];" vertex="1" connectable="0" parent="YOUpktUxaB1BnOb7g7wJ-220">
          <mxGeometry x="-0.3478" y="4" relative="1" as="geometry">
            <mxPoint as="offset" />
          </mxGeometry>
        </mxCell>
        <mxCell id="YOUpktUxaB1BnOb7g7wJ-222" value="Delete Lesson" style="ellipse;whiteSpace=wrap;html=1;fillColor=#fff2cc;strokeColor=#d6b656;" vertex="1" parent="1">
          <mxGeometry x="417" y="1879.32" width="85" height="38.64" as="geometry" />
        </mxCell>
        <mxCell id="YOUpktUxaB1BnOb7g7wJ-223" style="rounded=0;orthogonalLoop=1;jettySize=auto;html=1;entryX=0;entryY=0.5;entryDx=0;entryDy=0;endArrow=none;startFill=0;exitX=1;exitY=0.3333333333333333;exitDx=0;exitDy=0;exitPerimeter=0;" edge="1" parent="1" source="YOUpktUxaB1BnOb7g7wJ-224" target="YOUpktUxaB1BnOb7g7wJ-187">
          <mxGeometry relative="1" as="geometry" />
        </mxCell>
        <mxCell id="YOUpktUxaB1BnOb7g7wJ-224" value="&lt;div&gt;Teacher&lt;/div&gt;" style="shape=umlActor;verticalLabelPosition=bottom;verticalAlign=top;html=1;outlineConnect=0;" vertex="1" parent="1">
          <mxGeometry x="93" y="1090" width="30" height="60" as="geometry" />
        </mxCell>
        <mxCell id="YOUpktUxaB1BnOb7g7wJ-225" style="rounded=0;orthogonalLoop=1;jettySize=auto;html=1;entryX=1;entryY=0.5;entryDx=0;entryDy=0;exitX=0;exitY=0.3333333333333333;exitDx=0;exitDy=0;exitPerimeter=0;endArrow=none;startFill=0;" edge="1" parent="1" source="YOUpktUxaB1BnOb7g7wJ-180" target="YOUpktUxaB1BnOb7g7wJ-190">
          <mxGeometry relative="1" as="geometry" />
        </mxCell>
        <mxCell id="YOUpktUxaB1BnOb7g7wJ-226" style="rounded=0;orthogonalLoop=1;jettySize=auto;html=1;entryX=0;entryY=0.5;entryDx=0;entryDy=0;exitX=1;exitY=0.3333333333333333;exitDx=0;exitDy=0;exitPerimeter=0;endArrow=none;startFill=0;" edge="1" parent="1" source="YOUpktUxaB1BnOb7g7wJ-179" target="YOUpktUxaB1BnOb7g7wJ-197">
          <mxGeometry relative="1" as="geometry" />
        </mxCell>
        <mxCell id="YOUpktUxaB1BnOb7g7wJ-227" style="rounded=0;orthogonalLoop=1;jettySize=auto;html=1;entryX=0;entryY=0.5;entryDx=0;entryDy=0;exitX=1;exitY=0.3333333333333333;exitDx=0;exitDy=0;exitPerimeter=0;endArrow=none;startFill=0;" edge="1" parent="1" source="YOUpktUxaB1BnOb7g7wJ-179" target="YOUpktUxaB1BnOb7g7wJ-193">
          <mxGeometry relative="1" as="geometry" />
        </mxCell>
        <mxCell id="YOUpktUxaB1BnOb7g7wJ-228" style="rounded=0;orthogonalLoop=1;jettySize=auto;html=1;entryX=0;entryY=0.5;entryDx=0;entryDy=0;exitX=1;exitY=0.3333333333333333;exitDx=0;exitDy=0;exitPerimeter=0;endArrow=none;startFill=0;" edge="1" parent="1" source="YOUpktUxaB1BnOb7g7wJ-179" target="YOUpktUxaB1BnOb7g7wJ-194">
          <mxGeometry relative="1" as="geometry" />
        </mxCell>
        <mxCell id="YOUpktUxaB1BnOb7g7wJ-229" style="rounded=0;orthogonalLoop=1;jettySize=auto;html=1;entryX=1;entryY=0.5;entryDx=0;entryDy=0;endArrow=none;startFill=0;exitX=0;exitY=0.3333333333333333;exitDx=0;exitDy=0;exitPerimeter=0;" edge="1" parent="1" source="YOUpktUxaB1BnOb7g7wJ-180" target="YOUpktUxaB1BnOb7g7wJ-187">
          <mxGeometry relative="1" as="geometry">
            <mxPoint x="733" y="1410" as="sourcePoint" />
          </mxGeometry>
        </mxCell>
        <mxCell id="YOUpktUxaB1BnOb7g7wJ-230" style="rounded=0;orthogonalLoop=1;jettySize=auto;html=1;exitX=0;exitY=0.3333333333333333;exitDx=0;exitDy=0;exitPerimeter=0;endArrow=none;startFill=0;" edge="1" parent="1" source="YOUpktUxaB1BnOb7g7wJ-180" target="YOUpktUxaB1BnOb7g7wJ-197">
          <mxGeometry relative="1" as="geometry" />
        </mxCell>
        <mxCell id="YOUpktUxaB1BnOb7g7wJ-231" style="rounded=0;orthogonalLoop=1;jettySize=auto;html=1;dashed=1;entryX=0.945;entryY=0.397;entryDx=0;entryDy=0;entryPerimeter=0;" edge="1" parent="1" source="YOUpktUxaB1BnOb7g7wJ-216" target="YOUpktUxaB1BnOb7g7wJ-203">
          <mxGeometry relative="1" as="geometry">
            <mxPoint x="413" y="2299.32" as="targetPoint" />
          </mxGeometry>
        </mxCell>
        <mxCell id="YOUpktUxaB1BnOb7g7wJ-232" value="Extends" style="edgeLabel;html=1;align=center;verticalAlign=middle;resizable=0;points=[];" vertex="1" connectable="0" parent="YOUpktUxaB1BnOb7g7wJ-231">
          <mxGeometry x="-0.1176" y="-3" relative="1" as="geometry">
            <mxPoint as="offset" />
          </mxGeometry>
        </mxCell>
        <mxCell id="YOUpktUxaB1BnOb7g7wJ-233" style="rounded=0;orthogonalLoop=1;jettySize=auto;html=1;entryX=0;entryY=0.5;entryDx=0;entryDy=0;exitX=1;exitY=0.3333333333333333;exitDx=0;exitDy=0;exitPerimeter=0;endArrow=none;startFill=0;" edge="1" parent="1" source="YOUpktUxaB1BnOb7g7wJ-238" target="YOUpktUxaB1BnOb7g7wJ-212">
          <mxGeometry relative="1" as="geometry" />
        </mxCell>
        <mxCell id="YOUpktUxaB1BnOb7g7wJ-234" style="rounded=0;orthogonalLoop=1;jettySize=auto;html=1;exitX=1;exitY=0.3333333333333333;exitDx=0;exitDy=0;exitPerimeter=0;endArrow=none;startFill=0;" edge="1" parent="1" source="YOUpktUxaB1BnOb7g7wJ-238" target="YOUpktUxaB1BnOb7g7wJ-208">
          <mxGeometry relative="1" as="geometry" />
        </mxCell>
        <mxCell id="YOUpktUxaB1BnOb7g7wJ-235" style="rounded=0;orthogonalLoop=1;jettySize=auto;html=1;entryX=0;entryY=0.5;entryDx=0;entryDy=0;exitX=1;exitY=0.3333333333333333;exitDx=0;exitDy=0;exitPerimeter=0;endArrow=none;startFill=0;" edge="1" parent="1" source="YOUpktUxaB1BnOb7g7wJ-238" target="YOUpktUxaB1BnOb7g7wJ-203">
          <mxGeometry relative="1" as="geometry" />
        </mxCell>
        <mxCell id="YOUpktUxaB1BnOb7g7wJ-236" style="rounded=0;orthogonalLoop=1;jettySize=auto;html=1;entryX=0;entryY=0.5;entryDx=0;entryDy=0;exitX=1;exitY=0.3333333333333333;exitDx=0;exitDy=0;exitPerimeter=0;endArrow=none;startFill=0;" edge="1" parent="1" source="YOUpktUxaB1BnOb7g7wJ-238" target="YOUpktUxaB1BnOb7g7wJ-215">
          <mxGeometry relative="1" as="geometry" />
        </mxCell>
        <mxCell id="YOUpktUxaB1BnOb7g7wJ-237" style="rounded=0;orthogonalLoop=1;jettySize=auto;html=1;entryX=0;entryY=0.5;entryDx=0;entryDy=0;exitX=1;exitY=0.3333333333333333;exitDx=0;exitDy=0;exitPerimeter=0;endArrow=none;startFill=0;" edge="1" parent="1" source="YOUpktUxaB1BnOb7g7wJ-238" target="YOUpktUxaB1BnOb7g7wJ-216">
          <mxGeometry relative="1" as="geometry">
            <mxPoint x="453" y="2439.32" as="targetPoint" />
          </mxGeometry>
        </mxCell>
        <mxCell id="YOUpktUxaB1BnOb7g7wJ-238" value="&lt;div&gt;Teacher&lt;/div&gt;" style="shape=umlActor;verticalLabelPosition=bottom;verticalAlign=top;html=1;outlineConnect=0;" vertex="1" parent="1">
          <mxGeometry x="93" y="2088.64" width="30" height="60" as="geometry" />
        </mxCell>
        <mxCell id="YOUpktUxaB1BnOb7g7wJ-239" style="rounded=0;orthogonalLoop=1;jettySize=auto;html=1;entryX=1;entryY=0.5;entryDx=0;entryDy=0;exitX=0;exitY=0.3333333333333333;exitDx=0;exitDy=0;exitPerimeter=0;endArrow=none;startFill=0;" edge="1" parent="1" source="YOUpktUxaB1BnOb7g7wJ-244" target="YOUpktUxaB1BnOb7g7wJ-222">
          <mxGeometry relative="1" as="geometry" />
        </mxCell>
        <mxCell id="YOUpktUxaB1BnOb7g7wJ-240" style="rounded=0;orthogonalLoop=1;jettySize=auto;html=1;entryX=1;entryY=0;entryDx=0;entryDy=0;exitX=0;exitY=0.3333333333333333;exitDx=0;exitDy=0;exitPerimeter=0;endArrow=none;startFill=0;" edge="1" parent="1" source="YOUpktUxaB1BnOb7g7wJ-244" target="YOUpktUxaB1BnOb7g7wJ-215">
          <mxGeometry relative="1" as="geometry" />
        </mxCell>
        <mxCell id="YOUpktUxaB1BnOb7g7wJ-241" style="rounded=0;orthogonalLoop=1;jettySize=auto;html=1;entryX=1;entryY=0.5;entryDx=0;entryDy=0;exitX=0;exitY=0.3333333333333333;exitDx=0;exitDy=0;exitPerimeter=0;endArrow=none;startFill=0;" edge="1" parent="1" source="YOUpktUxaB1BnOb7g7wJ-244" target="YOUpktUxaB1BnOb7g7wJ-216">
          <mxGeometry relative="1" as="geometry" />
        </mxCell>
        <mxCell id="YOUpktUxaB1BnOb7g7wJ-242" style="rounded=0;orthogonalLoop=1;jettySize=auto;html=1;entryX=1;entryY=0.5;entryDx=0;entryDy=0;exitX=0;exitY=0.3333333333333333;exitDx=0;exitDy=0;exitPerimeter=0;endArrow=none;startFill=0;" edge="1" parent="1" source="YOUpktUxaB1BnOb7g7wJ-244" target="YOUpktUxaB1BnOb7g7wJ-219">
          <mxGeometry relative="1" as="geometry" />
        </mxCell>
        <mxCell id="YOUpktUxaB1BnOb7g7wJ-243" style="rounded=0;orthogonalLoop=1;jettySize=auto;html=1;entryX=1;entryY=0.5;entryDx=0;entryDy=0;endArrow=none;startFill=0;" edge="1" parent="1" source="YOUpktUxaB1BnOb7g7wJ-244" target="YOUpktUxaB1BnOb7g7wJ-209">
          <mxGeometry relative="1" as="geometry" />
        </mxCell>
        <mxCell id="YOUpktUxaB1BnOb7g7wJ-244" value="&lt;div&gt;BDD&lt;/div&gt;" style="shape=umlActor;verticalLabelPosition=bottom;verticalAlign=top;html=1;outlineConnect=0;" vertex="1" parent="1">
          <mxGeometry x="643" y="2057.96" width="30" height="60" as="geometry" />
        </mxCell>
        <mxCell id="YOUpktUxaB1BnOb7g7wJ-245" style="rounded=0;orthogonalLoop=1;jettySize=auto;html=1;exitX=1;exitY=0.3333333333333333;exitDx=0;exitDy=0;exitPerimeter=0;endArrow=none;startFill=0;" edge="1" parent="1" source="YOUpktUxaB1BnOb7g7wJ-247" target="YOUpktUxaB1BnOb7g7wJ-209">
          <mxGeometry relative="1" as="geometry" />
        </mxCell>
        <mxCell id="YOUpktUxaB1BnOb7g7wJ-246" style="rounded=0;orthogonalLoop=1;jettySize=auto;html=1;entryX=0;entryY=0.5;entryDx=0;entryDy=0;exitX=1;exitY=0.3333333333333333;exitDx=0;exitDy=0;exitPerimeter=0;endArrow=none;startFill=0;" edge="1" parent="1" source="YOUpktUxaB1BnOb7g7wJ-247" target="YOUpktUxaB1BnOb7g7wJ-219">
          <mxGeometry relative="1" as="geometry" />
        </mxCell>
        <mxCell id="YOUpktUxaB1BnOb7g7wJ-247" value="&lt;div&gt;Admin&lt;/div&gt;" style="shape=umlActor;verticalLabelPosition=bottom;verticalAlign=top;html=1;outlineConnect=0;" vertex="1" parent="1">
          <mxGeometry x="93" y="1973.32" width="30" height="60" as="geometry" />
        </mxCell>
        <mxCell id="YOUpktUxaB1BnOb7g7wJ-248" value="" style="rounded=0;whiteSpace=wrap;html=1;fillColor=#dae8fc;strokeColor=#6c8ebf;" vertex="1" parent="1">
          <mxGeometry x="935" y="1144.32" width="375" height="675.68" as="geometry" />
        </mxCell>
        <mxCell id="YOUpktUxaB1BnOb7g7wJ-249" value="Training" style="ellipse;whiteSpace=wrap;html=1;fillColor=#fff2cc;strokeColor=#d6b656;" vertex="1" parent="1">
          <mxGeometry x="1052.5" y="1160" width="85" height="38.64" as="geometry" />
        </mxCell>
        <mxCell id="YOUpktUxaB1BnOb7g7wJ-250" style="rounded=0;orthogonalLoop=1;jettySize=auto;html=1;entryX=0.5;entryY=0;entryDx=0;entryDy=0;" edge="1" parent="1" source="YOUpktUxaB1BnOb7g7wJ-256" target="YOUpktUxaB1BnOb7g7wJ-259">
          <mxGeometry relative="1" as="geometry" />
        </mxCell>
        <mxCell id="YOUpktUxaB1BnOb7g7wJ-251" value="Includes" style="edgeLabel;html=1;align=center;verticalAlign=middle;resizable=0;points=[];" vertex="1" connectable="0" parent="YOUpktUxaB1BnOb7g7wJ-250">
          <mxGeometry x="-0.2073" y="-2" relative="1" as="geometry">
            <mxPoint as="offset" />
          </mxGeometry>
        </mxCell>
        <mxCell id="YOUpktUxaB1BnOb7g7wJ-252" style="rounded=0;orthogonalLoop=1;jettySize=auto;html=1;" edge="1" parent="1" source="YOUpktUxaB1BnOb7g7wJ-256" target="YOUpktUxaB1BnOb7g7wJ-260">
          <mxGeometry relative="1" as="geometry" />
        </mxCell>
        <mxCell id="YOUpktUxaB1BnOb7g7wJ-253" value="Includes" style="edgeLabel;html=1;align=center;verticalAlign=middle;resizable=0;points=[];" vertex="1" connectable="0" parent="YOUpktUxaB1BnOb7g7wJ-252">
          <mxGeometry x="-0.0877" y="-3" relative="1" as="geometry">
            <mxPoint as="offset" />
          </mxGeometry>
        </mxCell>
        <mxCell id="YOUpktUxaB1BnOb7g7wJ-254" style="edgeStyle=orthogonalEdgeStyle;rounded=0;orthogonalLoop=1;jettySize=auto;html=1;" edge="1" parent="1" source="YOUpktUxaB1BnOb7g7wJ-256" target="YOUpktUxaB1BnOb7g7wJ-249">
          <mxGeometry relative="1" as="geometry" />
        </mxCell>
        <mxCell id="YOUpktUxaB1BnOb7g7wJ-255" value="Includes" style="edgeLabel;html=1;align=center;verticalAlign=middle;resizable=0;points=[];" vertex="1" connectable="0" parent="YOUpktUxaB1BnOb7g7wJ-254">
          <mxGeometry x="0.1456" y="1" relative="1" as="geometry">
            <mxPoint as="offset" />
          </mxGeometry>
        </mxCell>
        <mxCell id="YOUpktUxaB1BnOb7g7wJ-256" value="Awnser" style="ellipse;whiteSpace=wrap;html=1;fillColor=#fff2cc;strokeColor=#d6b656;" vertex="1" parent="1">
          <mxGeometry x="1052.5" y="1249.3200000000002" width="85" height="38.64" as="geometry" />
        </mxCell>
        <mxCell id="YOUpktUxaB1BnOb7g7wJ-257" style="rounded=0;orthogonalLoop=1;jettySize=auto;html=1;" edge="1" parent="1" source="YOUpktUxaB1BnOb7g7wJ-259" target="YOUpktUxaB1BnOb7g7wJ-265">
          <mxGeometry relative="1" as="geometry" />
        </mxCell>
        <mxCell id="YOUpktUxaB1BnOb7g7wJ-258" value="Includes" style="edgeLabel;html=1;align=center;verticalAlign=middle;resizable=0;points=[];" vertex="1" connectable="0" parent="YOUpktUxaB1BnOb7g7wJ-257">
          <mxGeometry x="-0.3781" y="3" relative="1" as="geometry">
            <mxPoint as="offset" />
          </mxGeometry>
        </mxCell>
        <mxCell id="YOUpktUxaB1BnOb7g7wJ-259" value="Go To next&amp;nbsp;" style="ellipse;whiteSpace=wrap;html=1;fillColor=#fff2cc;strokeColor=#d6b656;" vertex="1" parent="1">
          <mxGeometry x="1012.5" y="1511.36" width="85" height="38.64" as="geometry" />
        </mxCell>
        <mxCell id="YOUpktUxaB1BnOb7g7wJ-260" value="Loose A Life" style="ellipse;whiteSpace=wrap;html=1;fillColor=#fff2cc;strokeColor=#d6b656;" vertex="1" parent="1">
          <mxGeometry x="1096" y="1350" width="85" height="38.64" as="geometry" />
        </mxCell>
        <mxCell id="YOUpktUxaB1BnOb7g7wJ-261" style="rounded=0;orthogonalLoop=1;jettySize=auto;html=1;" edge="1" parent="1" source="YOUpktUxaB1BnOb7g7wJ-286" target="YOUpktUxaB1BnOb7g7wJ-265">
          <mxGeometry relative="1" as="geometry" />
        </mxCell>
        <mxCell id="YOUpktUxaB1BnOb7g7wJ-262" value="Includes" style="edgeLabel;html=1;align=center;verticalAlign=middle;resizable=0;points=[];" vertex="1" connectable="0" parent="YOUpktUxaB1BnOb7g7wJ-261">
          <mxGeometry x="-0.0953" relative="1" as="geometry">
            <mxPoint x="-13" y="20" as="offset" />
          </mxGeometry>
        </mxCell>
        <mxCell id="YOUpktUxaB1BnOb7g7wJ-263" style="rounded=0;orthogonalLoop=1;jettySize=auto;html=1;entryX=0.5;entryY=1;entryDx=0;entryDy=0;dashed=1;" edge="1" parent="1" source="YOUpktUxaB1BnOb7g7wJ-286" target="YOUpktUxaB1BnOb7g7wJ-260">
          <mxGeometry relative="1" as="geometry" />
        </mxCell>
        <mxCell id="YOUpktUxaB1BnOb7g7wJ-264" value="Extends" style="edgeLabel;html=1;align=center;verticalAlign=middle;resizable=0;points=[];" vertex="1" connectable="0" parent="YOUpktUxaB1BnOb7g7wJ-263">
          <mxGeometry x="0.0197" y="1" relative="1" as="geometry">
            <mxPoint as="offset" />
          </mxGeometry>
        </mxCell>
        <mxCell id="YOUpktUxaB1BnOb7g7wJ-265" value="Go To Last Page" style="ellipse;whiteSpace=wrap;html=1;fillColor=#fff2cc;strokeColor=#d6b656;" vertex="1" parent="1">
          <mxGeometry x="1052.5" y="1748.3200000000002" width="120" height="41.36" as="geometry" />
        </mxCell>
        <mxCell id="YOUpktUxaB1BnOb7g7wJ-266" style="rounded=0;orthogonalLoop=1;jettySize=auto;html=1;entryX=0.742;entryY=0.92;entryDx=0;entryDy=0;entryPerimeter=0;dashed=1;" edge="1" parent="1" source="YOUpktUxaB1BnOb7g7wJ-287" target="YOUpktUxaB1BnOb7g7wJ-286">
          <mxGeometry relative="1" as="geometry" />
        </mxCell>
        <mxCell id="YOUpktUxaB1BnOb7g7wJ-267" value="Extends" style="edgeLabel;html=1;align=center;verticalAlign=middle;resizable=0;points=[];" vertex="1" connectable="0" parent="YOUpktUxaB1BnOb7g7wJ-266">
          <mxGeometry x="-0.1261" y="-2" relative="1" as="geometry">
            <mxPoint as="offset" />
          </mxGeometry>
        </mxCell>
        <mxCell id="YOUpktUxaB1BnOb7g7wJ-268" value="&lt;font style=&quot;font-size: 10px;&quot;&gt;{{If all exercices complete}}&lt;/font&gt;" style="text;html=1;align=center;verticalAlign=middle;whiteSpace=wrap;rounded=0;" vertex="1" parent="1">
          <mxGeometry x="955" y="1754" width="90" height="30" as="geometry" />
        </mxCell>
        <mxCell id="YOUpktUxaB1BnOb7g7wJ-269" value="&lt;font style=&quot;font-size: 10px;&quot;&gt;{{If don&#39;t buy life}}&lt;/font&gt;" style="text;html=1;align=center;verticalAlign=middle;whiteSpace=wrap;rounded=0;" vertex="1" parent="1">
          <mxGeometry x="1180" y="1744.36" width="130" height="30" as="geometry" />
        </mxCell>
        <mxCell id="YOUpktUxaB1BnOb7g7wJ-270" value="&lt;font style=&quot;font-size: 10px;&quot;&gt;{{If life &amp;lt; 0}}&lt;/font&gt;" style="text;html=1;align=center;verticalAlign=middle;whiteSpace=wrap;rounded=0;" vertex="1" parent="1">
          <mxGeometry x="1160" y="1387.9600000000003" width="130" height="30" as="geometry" />
        </mxCell>
        <mxCell id="YOUpktUxaB1BnOb7g7wJ-271" style="rounded=0;orthogonalLoop=1;jettySize=auto;html=1;entryX=0;entryY=0.5;entryDx=0;entryDy=0;exitX=1;exitY=0.3333333333333333;exitDx=0;exitDy=0;exitPerimeter=0;endArrow=none;startFill=0;" edge="1" parent="1" source="YOUpktUxaB1BnOb7g7wJ-276" target="YOUpktUxaB1BnOb7g7wJ-259">
          <mxGeometry relative="1" as="geometry" />
        </mxCell>
        <mxCell id="YOUpktUxaB1BnOb7g7wJ-272" style="rounded=0;orthogonalLoop=1;jettySize=auto;html=1;entryX=0;entryY=0.5;entryDx=0;entryDy=0;exitX=1;exitY=0.3333333333333333;exitDx=0;exitDy=0;exitPerimeter=0;endArrow=none;startFill=0;" edge="1" parent="1" source="YOUpktUxaB1BnOb7g7wJ-276" target="YOUpktUxaB1BnOb7g7wJ-265">
          <mxGeometry relative="1" as="geometry" />
        </mxCell>
        <mxCell id="YOUpktUxaB1BnOb7g7wJ-273" style="rounded=0;orthogonalLoop=1;jettySize=auto;html=1;entryX=0;entryY=0.5;entryDx=0;entryDy=0;exitX=1;exitY=0.3333333333333333;exitDx=0;exitDy=0;exitPerimeter=0;endArrow=none;startFill=0;" edge="1" parent="1" source="YOUpktUxaB1BnOb7g7wJ-276" target="YOUpktUxaB1BnOb7g7wJ-287">
          <mxGeometry relative="1" as="geometry" />
        </mxCell>
        <mxCell id="YOUpktUxaB1BnOb7g7wJ-274" style="rounded=0;orthogonalLoop=1;jettySize=auto;html=1;entryX=0;entryY=0.5;entryDx=0;entryDy=0;exitX=1;exitY=0.3333333333333333;exitDx=0;exitDy=0;exitPerimeter=0;endArrow=none;startFill=0;" edge="1" parent="1" source="YOUpktUxaB1BnOb7g7wJ-276" target="YOUpktUxaB1BnOb7g7wJ-256">
          <mxGeometry relative="1" as="geometry" />
        </mxCell>
        <mxCell id="YOUpktUxaB1BnOb7g7wJ-275" style="rounded=0;orthogonalLoop=1;jettySize=auto;html=1;entryX=0;entryY=1;entryDx=0;entryDy=0;exitX=1;exitY=0.3333333333333333;exitDx=0;exitDy=0;exitPerimeter=0;endArrow=none;startFill=0;" edge="1" parent="1" source="YOUpktUxaB1BnOb7g7wJ-276" target="YOUpktUxaB1BnOb7g7wJ-260">
          <mxGeometry relative="1" as="geometry" />
        </mxCell>
        <mxCell id="YOUpktUxaB1BnOb7g7wJ-276" value="&lt;div&gt;User&lt;/div&gt;" style="shape=umlActor;verticalLabelPosition=bottom;verticalAlign=top;html=1;outlineConnect=0;" vertex="1" parent="1">
          <mxGeometry x="827" y="1377.1599999999999" width="30" height="60" as="geometry" />
        </mxCell>
        <mxCell id="YOUpktUxaB1BnOb7g7wJ-277" style="rounded=0;orthogonalLoop=1;jettySize=auto;html=1;entryX=1;entryY=0.5;entryDx=0;entryDy=0;exitX=0;exitY=0.3333333333333333;exitDx=0;exitDy=0;exitPerimeter=0;endArrow=none;startFill=0;" edge="1" parent="1" source="YOUpktUxaB1BnOb7g7wJ-278" target="YOUpktUxaB1BnOb7g7wJ-256">
          <mxGeometry relative="1" as="geometry" />
        </mxCell>
        <mxCell id="YOUpktUxaB1BnOb7g7wJ-278" value="&lt;div&gt;BDD&lt;/div&gt;" style="shape=umlActor;verticalLabelPosition=bottom;verticalAlign=top;html=1;outlineConnect=0;" vertex="1" parent="1">
          <mxGeometry x="1380" y="1160.0000000000002" width="30" height="60" as="geometry" />
        </mxCell>
        <mxCell id="YOUpktUxaB1BnOb7g7wJ-279" style="rounded=0;orthogonalLoop=1;jettySize=auto;html=1;entryX=1;entryY=0.5;entryDx=0;entryDy=0;exitX=0;exitY=0.3333333333333333;exitDx=0;exitDy=0;exitPerimeter=0;endArrow=none;startFill=0;" edge="1" parent="1" source="YOUpktUxaB1BnOb7g7wJ-278" target="YOUpktUxaB1BnOb7g7wJ-286">
          <mxGeometry relative="1" as="geometry" />
        </mxCell>
        <mxCell id="YOUpktUxaB1BnOb7g7wJ-280" style="rounded=0;orthogonalLoop=1;jettySize=auto;html=1;entryX=1;entryY=0.5;entryDx=0;entryDy=0;endArrow=none;startFill=0;exitX=0;exitY=0.3333333333333333;exitDx=0;exitDy=0;exitPerimeter=0;" edge="1" parent="1" source="YOUpktUxaB1BnOb7g7wJ-282" target="YOUpktUxaB1BnOb7g7wJ-193">
          <mxGeometry relative="1" as="geometry" />
        </mxCell>
        <mxCell id="YOUpktUxaB1BnOb7g7wJ-281" style="rounded=0;orthogonalLoop=1;jettySize=auto;html=1;entryX=1;entryY=0.5;entryDx=0;entryDy=0;exitX=0;exitY=0.3333333333333333;exitDx=0;exitDy=0;exitPerimeter=0;endArrow=none;startFill=0;" edge="1" parent="1" source="YOUpktUxaB1BnOb7g7wJ-282" target="YOUpktUxaB1BnOb7g7wJ-194">
          <mxGeometry relative="1" as="geometry" />
        </mxCell>
        <mxCell id="YOUpktUxaB1BnOb7g7wJ-282" value="Router" style="shape=umlActor;verticalLabelPosition=bottom;verticalAlign=top;html=1;outlineConnect=0;" vertex="1" parent="1">
          <mxGeometry x="713" y="1448.6400000000003" width="30" height="60" as="geometry" />
        </mxCell>
        <mxCell id="YOUpktUxaB1BnOb7g7wJ-283" style="rounded=0;orthogonalLoop=1;jettySize=auto;html=1;entryX=1;entryY=0.5;entryDx=0;entryDy=0;endArrow=none;startFill=0;exitX=0;exitY=0.3333333333333333;exitDx=0;exitDy=0;exitPerimeter=0;" edge="1" parent="1" source="YOUpktUxaB1BnOb7g7wJ-285" target="YOUpktUxaB1BnOb7g7wJ-265">
          <mxGeometry relative="1" as="geometry">
            <mxPoint x="1490" y="1375.0599999999995" as="sourcePoint" />
            <mxPoint x="1143.1295743226533" y="1630.0034752257825" as="targetPoint" />
          </mxGeometry>
        </mxCell>
        <mxCell id="YOUpktUxaB1BnOb7g7wJ-284" style="rounded=0;orthogonalLoop=1;jettySize=auto;html=1;entryX=1;entryY=0.5;entryDx=0;entryDy=0;exitX=0;exitY=0.3333333333333333;exitDx=0;exitDy=0;exitPerimeter=0;endArrow=none;startFill=0;" edge="1" parent="1" source="YOUpktUxaB1BnOb7g7wJ-285" target="YOUpktUxaB1BnOb7g7wJ-259">
          <mxGeometry relative="1" as="geometry" />
        </mxCell>
        <mxCell id="YOUpktUxaB1BnOb7g7wJ-285" value="Router" style="shape=umlActor;verticalLabelPosition=bottom;verticalAlign=top;html=1;outlineConnect=0;" vertex="1" parent="1">
          <mxGeometry x="1440" y="1372.9599999999998" width="30" height="60" as="geometry" />
        </mxCell>
        <mxCell id="YOUpktUxaB1BnOb7g7wJ-286" value="Show life buying pannel" style="ellipse;whiteSpace=wrap;html=1;fillColor=#fff2cc;strokeColor=#d6b656;" vertex="1" parent="1">
          <mxGeometry x="1137.5" y="1417.96" width="120" height="41.36" as="geometry" />
        </mxCell>
        <mxCell id="YOUpktUxaB1BnOb7g7wJ-287" value="Buy Life" style="ellipse;whiteSpace=wrap;html=1;fillColor=#fff2cc;strokeColor=#d6b656;" vertex="1" parent="1">
          <mxGeometry x="1181" y="1533.7000000000003" width="120" height="41.36" as="geometry" />
        </mxCell>
        <mxCell id="YOUpktUxaB1BnOb7g7wJ-288" value="" style="rounded=0;whiteSpace=wrap;html=1;fillColor=#dae8fc;strokeColor=#6c8ebf;" vertex="1" parent="1">
          <mxGeometry x="930" y="530" width="370" height="435.68" as="geometry" />
        </mxCell>
        <mxCell id="YOUpktUxaB1BnOb7g7wJ-289" style="rounded=0;orthogonalLoop=1;jettySize=auto;html=1;entryX=1;entryY=0.5;entryDx=0;entryDy=0;endArrow=none;startFill=0;exitX=0;exitY=0.3333333333333333;exitDx=0;exitDy=0;exitPerimeter=0;" edge="1" parent="1" source="YOUpktUxaB1BnOb7g7wJ-290" target="YOUpktUxaB1BnOb7g7wJ-301">
          <mxGeometry relative="1" as="geometry" />
        </mxCell>
        <mxCell id="YOUpktUxaB1BnOb7g7wJ-290" value="&lt;div&gt;BDD&lt;/div&gt;" style="shape=umlActor;verticalLabelPosition=bottom;verticalAlign=top;html=1;outlineConnect=0;" vertex="1" parent="1">
          <mxGeometry x="1339" y="518.5200000000001" width="30" height="60" as="geometry" />
        </mxCell>
        <mxCell id="YOUpktUxaB1BnOb7g7wJ-291" style="rounded=0;orthogonalLoop=1;jettySize=auto;html=1;endArrow=none;startFill=0;exitX=1;exitY=0.3333333333333333;exitDx=0;exitDy=0;exitPerimeter=0;" edge="1" parent="1" source="YOUpktUxaB1BnOb7g7wJ-292" target="YOUpktUxaB1BnOb7g7wJ-301">
          <mxGeometry relative="1" as="geometry" />
        </mxCell>
        <mxCell id="YOUpktUxaB1BnOb7g7wJ-292" value="&lt;div&gt;User&lt;/div&gt;" style="shape=umlActor;verticalLabelPosition=bottom;verticalAlign=top;html=1;outlineConnect=0;" vertex="1" parent="1">
          <mxGeometry x="860" y="717.84" width="30" height="60" as="geometry" />
        </mxCell>
        <mxCell id="YOUpktUxaB1BnOb7g7wJ-293" style="rounded=0;orthogonalLoop=1;jettySize=auto;html=1;dashed=1;" edge="1" parent="1" source="YOUpktUxaB1BnOb7g7wJ-301" target="YOUpktUxaB1BnOb7g7wJ-300">
          <mxGeometry relative="1" as="geometry" />
        </mxCell>
        <mxCell id="YOUpktUxaB1BnOb7g7wJ-294" value="Extends" style="edgeLabel;html=1;align=center;verticalAlign=middle;resizable=0;points=[];" vertex="1" connectable="0" parent="YOUpktUxaB1BnOb7g7wJ-293">
          <mxGeometry x="-0.3453" y="-1" relative="1" as="geometry">
            <mxPoint as="offset" />
          </mxGeometry>
        </mxCell>
        <mxCell id="YOUpktUxaB1BnOb7g7wJ-295" style="rounded=0;orthogonalLoop=1;jettySize=auto;html=1;dashed=1;" edge="1" parent="1" source="YOUpktUxaB1BnOb7g7wJ-300" target="YOUpktUxaB1BnOb7g7wJ-311">
          <mxGeometry relative="1" as="geometry" />
        </mxCell>
        <mxCell id="YOUpktUxaB1BnOb7g7wJ-296" value="Extends" style="edgeLabel;html=1;align=center;verticalAlign=middle;resizable=0;points=[];" vertex="1" connectable="0" parent="YOUpktUxaB1BnOb7g7wJ-295">
          <mxGeometry x="0.1749" relative="1" as="geometry">
            <mxPoint as="offset" />
          </mxGeometry>
        </mxCell>
        <mxCell id="YOUpktUxaB1BnOb7g7wJ-297" style="rounded=0;orthogonalLoop=1;jettySize=auto;html=1;dashed=1;" edge="1" parent="1" source="YOUpktUxaB1BnOb7g7wJ-300" target="YOUpktUxaB1BnOb7g7wJ-303">
          <mxGeometry relative="1" as="geometry" />
        </mxCell>
        <mxCell id="YOUpktUxaB1BnOb7g7wJ-298" value="Extends" style="edgeLabel;html=1;align=center;verticalAlign=middle;resizable=0;points=[];" vertex="1" connectable="0" parent="YOUpktUxaB1BnOb7g7wJ-297">
          <mxGeometry x="0.1242" y="-2" relative="1" as="geometry">
            <mxPoint as="offset" />
          </mxGeometry>
        </mxCell>
        <mxCell id="YOUpktUxaB1BnOb7g7wJ-299" value="{{&quot;wait for mail&lt;div&gt;&amp;nbsp;confimation&quot;}}&lt;/div&gt;" style="edgeLabel;html=1;align=center;verticalAlign=middle;resizable=0;points=[];" vertex="1" connectable="0" parent="YOUpktUxaB1BnOb7g7wJ-297">
          <mxGeometry x="-0.182" y="-1" relative="1" as="geometry">
            <mxPoint as="offset" />
          </mxGeometry>
        </mxCell>
        <mxCell id="YOUpktUxaB1BnOb7g7wJ-300" value="Go To Sign up page" style="ellipse;whiteSpace=wrap;html=1;fillColor=#fff2cc;strokeColor=#d6b656;" vertex="1" parent="1">
          <mxGeometry x="1101" y="863.52" width="130" height="48.64" as="geometry" />
        </mxCell>
        <mxCell id="YOUpktUxaB1BnOb7g7wJ-301" value="Create Account" style="ellipse;whiteSpace=wrap;html=1;fillColor=#fff2cc;strokeColor=#d6b656;" vertex="1" parent="1">
          <mxGeometry x="941.5" y="680" width="130" height="48.64" as="geometry" />
        </mxCell>
        <mxCell id="YOUpktUxaB1BnOb7g7wJ-302" value="&lt;font style=&quot;font-size: 10px;&quot;&gt;{if user don&#39;t have an account}&lt;/font&gt;" style="text;html=1;align=center;verticalAlign=middle;whiteSpace=wrap;rounded=0;" vertex="1" parent="1">
          <mxGeometry x="955" y="645" width="90" height="30" as="geometry" />
        </mxCell>
        <mxCell id="YOUpktUxaB1BnOb7g7wJ-303" value="Go to homepage&amp;nbsp;" style="ellipse;whiteSpace=wrap;html=1;fillColor=#fff2cc;strokeColor=#d6b656;" vertex="1" parent="1">
          <mxGeometry x="1035" y="583.52" width="85" height="38.64" as="geometry" />
        </mxCell>
        <mxCell id="YOUpktUxaB1BnOb7g7wJ-304" value="&lt;font style=&quot;font-size: 10px;&quot;&gt;{if user entered correct information}&lt;/font&gt;" style="text;html=1;align=center;verticalAlign=middle;whiteSpace=wrap;rounded=0;" vertex="1" parent="1">
          <mxGeometry x="1018.5" y="533.5200000000001" width="90" height="30" as="geometry" />
        </mxCell>
        <mxCell id="YOUpktUxaB1BnOb7g7wJ-305" style="rounded=0;orthogonalLoop=1;jettySize=auto;html=1;entryX=1;entryY=0.5;entryDx=0;entryDy=0;endArrow=none;startFill=0;exitX=0;exitY=0.3333333333333333;exitDx=0;exitDy=0;exitPerimeter=0;" edge="1" parent="1" source="YOUpktUxaB1BnOb7g7wJ-306" target="YOUpktUxaB1BnOb7g7wJ-303">
          <mxGeometry relative="1" as="geometry">
            <Array as="points" />
          </mxGeometry>
        </mxCell>
        <mxCell id="YOUpktUxaB1BnOb7g7wJ-306" value="Router" style="shape=umlActor;verticalLabelPosition=bottom;verticalAlign=top;html=1;outlineConnect=0;" vertex="1" parent="1">
          <mxGeometry x="1355" y="631.3600000000001" width="30" height="60" as="geometry" />
        </mxCell>
        <mxCell id="YOUpktUxaB1BnOb7g7wJ-307" style="rounded=0;orthogonalLoop=1;jettySize=auto;html=1;entryX=1;entryY=0.5;entryDx=0;entryDy=0;endArrow=none;startFill=0;exitX=0;exitY=0.3333333333333333;exitDx=0;exitDy=0;exitPerimeter=0;" edge="1" parent="1" source="YOUpktUxaB1BnOb7g7wJ-306" target="YOUpktUxaB1BnOb7g7wJ-300">
          <mxGeometry relative="1" as="geometry">
            <mxPoint x="1435" y="697.84" as="sourcePoint" />
            <mxPoint x="1310" y="652.84" as="targetPoint" />
            <Array as="points" />
          </mxGeometry>
        </mxCell>
        <mxCell id="YOUpktUxaB1BnOb7g7wJ-308" style="rounded=0;orthogonalLoop=1;jettySize=auto;html=1;entryX=1;entryY=1;entryDx=0;entryDy=0;dashed=1;" edge="1" parent="1" source="YOUpktUxaB1BnOb7g7wJ-311" target="YOUpktUxaB1BnOb7g7wJ-303">
          <mxGeometry relative="1" as="geometry" />
        </mxCell>
        <mxCell id="YOUpktUxaB1BnOb7g7wJ-309" value="Extends" style="edgeLabel;html=1;align=center;verticalAlign=middle;resizable=0;points=[];" vertex="1" connectable="0" parent="YOUpktUxaB1BnOb7g7wJ-308">
          <mxGeometry x="-0.1091" relative="1" as="geometry">
            <mxPoint x="-32" y="-26" as="offset" />
          </mxGeometry>
        </mxCell>
        <mxCell id="YOUpktUxaB1BnOb7g7wJ-310" value="{{&quot;Confirmation&amp;nbsp;&lt;div&gt;complete&quot;}}&lt;/div&gt;" style="edgeLabel;html=1;align=center;verticalAlign=middle;resizable=0;points=[];" vertex="1" connectable="0" parent="YOUpktUxaB1BnOb7g7wJ-308">
          <mxGeometry x="-0.5092" y="1" relative="1" as="geometry">
            <mxPoint as="offset" />
          </mxGeometry>
        </mxCell>
        <mxCell id="YOUpktUxaB1BnOb7g7wJ-311" value="Send mail confirmation" style="ellipse;whiteSpace=wrap;html=1;fillColor=#fff2cc;strokeColor=#d6b656;" vertex="1" parent="1">
          <mxGeometry x="1166" y="717.8400000000001" width="130" height="48.64" as="geometry" />
        </mxCell>
        <mxCell id="YOUpktUxaB1BnOb7g7wJ-312" style="rounded=0;orthogonalLoop=1;jettySize=auto;html=1;entryX=1;entryY=0.5;entryDx=0;entryDy=0;endArrow=none;startFill=0;" edge="1" parent="1" source="YOUpktUxaB1BnOb7g7wJ-313" target="YOUpktUxaB1BnOb7g7wJ-311">
          <mxGeometry relative="1" as="geometry" />
        </mxCell>
        <mxCell id="YOUpktUxaB1BnOb7g7wJ-313" value="MailManager" style="shape=umlActor;verticalLabelPosition=bottom;verticalAlign=top;html=1;outlineConnect=0;" vertex="1" parent="1">
          <mxGeometry x="1355" y="761.3600000000001" width="30" height="60" as="geometry" />
        </mxCell>
        <mxCell id="YOUpktUxaB1BnOb7g7wJ-314" value="Show ad" style="ellipse;whiteSpace=wrap;html=1;fillColor=#fff2cc;strokeColor=#d6b656;" vertex="1" parent="1">
          <mxGeometry x="555.5" y="1360" width="93.5" height="38.64" as="geometry" />
        </mxCell>
        <mxCell id="YOUpktUxaB1BnOb7g7wJ-315" style="rounded=0;orthogonalLoop=1;jettySize=auto;html=1;endArrow=none;startFill=0;exitX=0;exitY=0.3333333333333333;exitDx=0;exitDy=0;exitPerimeter=0;entryX=1;entryY=0.5;entryDx=0;entryDy=0;" edge="1" parent="1" source="YOUpktUxaB1BnOb7g7wJ-316" target="YOUpktUxaB1BnOb7g7wJ-314">
          <mxGeometry relative="1" as="geometry" />
        </mxCell>
        <mxCell id="YOUpktUxaB1BnOb7g7wJ-316" value="IMA SDK" style="shape=umlActor;verticalLabelPosition=bottom;verticalAlign=top;html=1;outlineConnect=0;" vertex="1" parent="1">
          <mxGeometry x="693" y="1319.9999999999998" width="30" height="60" as="geometry" />
        </mxCell>
        <mxCell id="YOUpktUxaB1BnOb7g7wJ-317" value="" style="rounded=0;whiteSpace=wrap;html=1;fillColor=#dae8fc;strokeColor=#6c8ebf;" vertex="1" parent="1">
          <mxGeometry x="992" y="1898.6399999999999" width="320" height="330" as="geometry" />
        </mxCell>
        <mxCell id="YOUpktUxaB1BnOb7g7wJ-318" style="rounded=0;orthogonalLoop=1;jettySize=auto;html=1;strokeColor=none;dashed=1;curved=1;" edge="1" parent="1" source="YOUpktUxaB1BnOb7g7wJ-319" target="YOUpktUxaB1BnOb7g7wJ-322">
          <mxGeometry relative="1" as="geometry" />
        </mxCell>
        <mxCell id="YOUpktUxaB1BnOb7g7wJ-319" value="Buy Life" style="ellipse;whiteSpace=wrap;html=1;fillColor=#fff2cc;strokeColor=#d6b656;" vertex="1" parent="1">
          <mxGeometry x="1101" y="2147.2799999999997" width="120" height="41.36" as="geometry" />
        </mxCell>
        <mxCell id="YOUpktUxaB1BnOb7g7wJ-320" style="rounded=0;orthogonalLoop=1;jettySize=auto;html=1;dashed=1;" edge="1" parent="1" source="YOUpktUxaB1BnOb7g7wJ-322" target="YOUpktUxaB1BnOb7g7wJ-319">
          <mxGeometry relative="1" as="geometry" />
        </mxCell>
        <mxCell id="YOUpktUxaB1BnOb7g7wJ-321" value="Extends" style="edgeLabel;html=1;align=center;verticalAlign=middle;resizable=0;points=[];" vertex="1" connectable="0" parent="YOUpktUxaB1BnOb7g7wJ-320">
          <mxGeometry x="-0.0489" y="-2" relative="1" as="geometry">
            <mxPoint x="10" y="37" as="offset" />
          </mxGeometry>
        </mxCell>
        <mxCell id="YOUpktUxaB1BnOb7g7wJ-322" value="Show Ad" style="ellipse;whiteSpace=wrap;html=1;fillColor=#fff2cc;strokeColor=#d6b656;" vertex="1" parent="1">
          <mxGeometry x="1082" y="1950" width="120" height="41.36" as="geometry" />
        </mxCell>
        <mxCell id="YOUpktUxaB1BnOb7g7wJ-323" style="rounded=0;orthogonalLoop=1;jettySize=auto;html=1;dashed=1;" edge="1" parent="1" source="YOUpktUxaB1BnOb7g7wJ-325" target="YOUpktUxaB1BnOb7g7wJ-319">
          <mxGeometry relative="1" as="geometry" />
        </mxCell>
        <mxCell id="YOUpktUxaB1BnOb7g7wJ-324" value="Extends" style="edgeLabel;html=1;align=center;verticalAlign=middle;resizable=0;points=[];" vertex="1" connectable="0" parent="YOUpktUxaB1BnOb7g7wJ-323">
          <mxGeometry x="-0.3161" y="-1" relative="1" as="geometry">
            <mxPoint x="2" y="7" as="offset" />
          </mxGeometry>
        </mxCell>
        <mxCell id="YOUpktUxaB1BnOb7g7wJ-325" value="Use in game currency" style="ellipse;whiteSpace=wrap;html=1;fillColor=#fff2cc;strokeColor=#d6b656;" vertex="1" parent="1">
          <mxGeometry x="1012.5" y="2042.9600000000003" width="120" height="41.36" as="geometry" />
        </mxCell>
        <mxCell id="YOUpktUxaB1BnOb7g7wJ-326" style="edgeStyle=orthogonalEdgeStyle;rounded=0;orthogonalLoop=1;jettySize=auto;html=1;exitX=0.5;exitY=1;exitDx=0;exitDy=0;" edge="1" parent="1" source="YOUpktUxaB1BnOb7g7wJ-317" target="YOUpktUxaB1BnOb7g7wJ-317">
          <mxGeometry relative="1" as="geometry" />
        </mxCell>
        <mxCell id="YOUpktUxaB1BnOb7g7wJ-327" style="rounded=0;orthogonalLoop=1;jettySize=auto;html=1;exitX=1;exitY=0.3333333333333333;exitDx=0;exitDy=0;exitPerimeter=0;endArrow=none;endFill=1;startFill=0;" edge="1" parent="1" source="YOUpktUxaB1BnOb7g7wJ-329" target="YOUpktUxaB1BnOb7g7wJ-325">
          <mxGeometry relative="1" as="geometry" />
        </mxCell>
        <mxCell id="YOUpktUxaB1BnOb7g7wJ-328" style="rounded=0;orthogonalLoop=1;jettySize=auto;html=1;entryX=0;entryY=0.5;entryDx=0;entryDy=0;exitX=1;exitY=0.3333333333333333;exitDx=0;exitDy=0;exitPerimeter=0;endArrow=none;startFill=0;" edge="1" parent="1" source="YOUpktUxaB1BnOb7g7wJ-329" target="YOUpktUxaB1BnOb7g7wJ-319">
          <mxGeometry relative="1" as="geometry" />
        </mxCell>
        <mxCell id="YOUpktUxaB1BnOb7g7wJ-329" value="&lt;div&gt;User&lt;/div&gt;" style="shape=umlActor;verticalLabelPosition=bottom;verticalAlign=top;html=1;outlineConnect=0;" vertex="1" parent="1">
          <mxGeometry x="894.5" y="2047.2800000000002" width="30" height="60" as="geometry" />
        </mxCell>
        <mxCell id="YOUpktUxaB1BnOb7g7wJ-330" style="rounded=0;orthogonalLoop=1;jettySize=auto;html=1;exitX=0;exitY=0.3333333333333333;exitDx=0;exitDy=0;exitPerimeter=0;endArrow=none;startFill=0;entryX=1;entryY=0.5;entryDx=0;entryDy=0;" edge="1" parent="1" source="YOUpktUxaB1BnOb7g7wJ-332" target="YOUpktUxaB1BnOb7g7wJ-325">
          <mxGeometry relative="1" as="geometry" />
        </mxCell>
        <mxCell id="YOUpktUxaB1BnOb7g7wJ-331" style="rounded=0;orthogonalLoop=1;jettySize=auto;html=1;entryX=1;entryY=0.5;entryDx=0;entryDy=0;endArrow=none;startFill=0;exitX=0;exitY=0.3333333333333333;exitDx=0;exitDy=0;exitPerimeter=0;" edge="1" parent="1" source="YOUpktUxaB1BnOb7g7wJ-332" target="YOUpktUxaB1BnOb7g7wJ-319">
          <mxGeometry relative="1" as="geometry" />
        </mxCell>
        <mxCell id="YOUpktUxaB1BnOb7g7wJ-332" value="&lt;div&gt;BDD&lt;/div&gt;" style="shape=umlActor;verticalLabelPosition=bottom;verticalAlign=top;html=1;outlineConnect=0;" vertex="1" parent="1">
          <mxGeometry x="1352" y="2087.2799999999997" width="30" height="60" as="geometry" />
        </mxCell>
        <mxCell id="YOUpktUxaB1BnOb7g7wJ-333" style="rounded=0;orthogonalLoop=1;jettySize=auto;html=1;endArrow=none;startFill=0;exitX=0;exitY=0.3333333333333333;exitDx=0;exitDy=0;exitPerimeter=0;" edge="1" parent="1" source="YOUpktUxaB1BnOb7g7wJ-334" target="YOUpktUxaB1BnOb7g7wJ-322">
          <mxGeometry relative="1" as="geometry" />
        </mxCell>
        <mxCell id="YOUpktUxaB1BnOb7g7wJ-334" value="IMA SDK" style="shape=umlActor;verticalLabelPosition=bottom;verticalAlign=top;html=1;outlineConnect=0;" vertex="1" parent="1">
          <mxGeometry x="1334.5" y="1949.9999999999995" width="30" height="60" as="geometry" />
        </mxCell>
        <mxCell id="YOUpktUxaB1BnOb7g7wJ-335" value="" style="rounded=0;whiteSpace=wrap;html=1;fillColor=#dae8fc;strokeColor=#6c8ebf;" vertex="1" parent="1">
          <mxGeometry x="992" y="2350" width="320" height="340" as="geometry" />
        </mxCell>
        <mxCell id="YOUpktUxaB1BnOb7g7wJ-336" style="rounded=0;orthogonalLoop=1;jettySize=auto;html=1;strokeColor=none;dashed=1;curved=1;" edge="1" parent="1">
          <mxGeometry relative="1" as="geometry">
            <mxPoint x="1250.0688874024445" y="2568.119221175558" as="sourcePoint" />
            <mxPoint x="1181.9394275249097" y="2380.520420922876" as="targetPoint" />
          </mxGeometry>
        </mxCell>
        <mxCell id="YOUpktUxaB1BnOb7g7wJ-337" style="edgeStyle=orthogonalEdgeStyle;rounded=0;orthogonalLoop=1;jettySize=auto;html=1;exitX=0.5;exitY=1;exitDx=0;exitDy=0;" edge="1" parent="1" source="YOUpktUxaB1BnOb7g7wJ-335" target="YOUpktUxaB1BnOb7g7wJ-335">
          <mxGeometry relative="1" as="geometry" />
        </mxCell>
        <mxCell id="YOUpktUxaB1BnOb7g7wJ-338" style="rounded=0;orthogonalLoop=1;jettySize=auto;html=1;exitX=1;exitY=0.3333333333333333;exitDx=0;exitDy=0;exitPerimeter=0;endArrow=none;startFill=0;" edge="1" parent="1" source="YOUpktUxaB1BnOb7g7wJ-339" target="YOUpktUxaB1BnOb7g7wJ-349">
          <mxGeometry relative="1" as="geometry" />
        </mxCell>
        <mxCell id="YOUpktUxaB1BnOb7g7wJ-339" value="&lt;div&gt;User&lt;/div&gt;" style="shape=umlActor;verticalLabelPosition=bottom;verticalAlign=top;html=1;outlineConnect=0;" vertex="1" parent="1">
          <mxGeometry x="894.5" y="2429.3200000000006" width="30" height="60" as="geometry" />
        </mxCell>
        <mxCell id="YOUpktUxaB1BnOb7g7wJ-340" style="rounded=0;orthogonalLoop=1;jettySize=auto;html=1;entryX=0;entryY=0;entryDx=0;entryDy=0;dashed=1;" edge="1" parent="1" source="YOUpktUxaB1BnOb7g7wJ-342" target="YOUpktUxaB1BnOb7g7wJ-265">
          <mxGeometry relative="1" as="geometry" />
        </mxCell>
        <mxCell id="YOUpktUxaB1BnOb7g7wJ-341" value="Extends" style="edgeLabel;html=1;align=center;verticalAlign=middle;resizable=0;points=[];" vertex="1" connectable="0" parent="YOUpktUxaB1BnOb7g7wJ-340">
          <mxGeometry x="-0.0953" relative="1" as="geometry">
            <mxPoint as="offset" />
          </mxGeometry>
        </mxCell>
        <mxCell id="YOUpktUxaB1BnOb7g7wJ-342" value="Show Ad" style="ellipse;whiteSpace=wrap;html=1;fillColor=#fff2cc;strokeColor=#d6b656;" vertex="1" parent="1">
          <mxGeometry x="1002" y="1640" width="85" height="38.64" as="geometry" />
        </mxCell>
        <mxCell id="YOUpktUxaB1BnOb7g7wJ-343" value="Use in game currency" style="ellipse;whiteSpace=wrap;html=1;fillColor=#fff2cc;strokeColor=#d6b656;" vertex="1" parent="1">
          <mxGeometry x="1108.5" y="2590" width="107" height="50" as="geometry" />
        </mxCell>
        <mxCell id="YOUpktUxaB1BnOb7g7wJ-344" style="rounded=0;orthogonalLoop=1;jettySize=auto;html=1;dashed=1;" edge="1" parent="1" source="YOUpktUxaB1BnOb7g7wJ-346" target="YOUpktUxaB1BnOb7g7wJ-343">
          <mxGeometry relative="1" as="geometry" />
        </mxCell>
        <mxCell id="YOUpktUxaB1BnOb7g7wJ-345" value="Extends" style="edgeLabel;html=1;align=center;verticalAlign=middle;resizable=0;points=[];" vertex="1" connectable="0" parent="YOUpktUxaB1BnOb7g7wJ-344">
          <mxGeometry x="-0.3583" y="1" relative="1" as="geometry">
            <mxPoint as="offset" />
          </mxGeometry>
        </mxCell>
        <mxCell id="YOUpktUxaB1BnOb7g7wJ-346" value="Buy with money" style="ellipse;whiteSpace=wrap;html=1;fillColor=#fff2cc;strokeColor=#d6b656;" vertex="1" parent="1">
          <mxGeometry x="1107.5" y="2400" width="107" height="50" as="geometry" />
        </mxCell>
        <mxCell id="YOUpktUxaB1BnOb7g7wJ-347" style="rounded=0;orthogonalLoop=1;jettySize=auto;html=1;entryX=0;entryY=0;entryDx=0;entryDy=0;dashed=1;" edge="1" parent="1" source="YOUpktUxaB1BnOb7g7wJ-349" target="YOUpktUxaB1BnOb7g7wJ-343">
          <mxGeometry relative="1" as="geometry" />
        </mxCell>
        <mxCell id="YOUpktUxaB1BnOb7g7wJ-348" value="Extends" style="edgeLabel;html=1;align=center;verticalAlign=middle;resizable=0;points=[];" vertex="1" connectable="0" parent="YOUpktUxaB1BnOb7g7wJ-347">
          <mxGeometry x="-0.0772" relative="1" as="geometry">
            <mxPoint as="offset" />
          </mxGeometry>
        </mxCell>
        <mxCell id="YOUpktUxaB1BnOb7g7wJ-349" value="Unlock a lesson" style="ellipse;whiteSpace=wrap;html=1;fillColor=#fff2cc;strokeColor=#d6b656;" vertex="1" parent="1">
          <mxGeometry x="1018.5" y="2489.32" width="107" height="50" as="geometry" />
        </mxCell>
        <mxCell id="YOUpktUxaB1BnOb7g7wJ-350" style="rounded=0;orthogonalLoop=1;jettySize=auto;html=1;endArrow=none;startFill=0;exitX=0;exitY=0.3333333333333333;exitDx=0;exitDy=0;exitPerimeter=0;" edge="1" parent="1" source="YOUpktUxaB1BnOb7g7wJ-351" target="YOUpktUxaB1BnOb7g7wJ-346">
          <mxGeometry relative="1" as="geometry" />
        </mxCell>
        <mxCell id="YOUpktUxaB1BnOb7g7wJ-351" value="&lt;div&gt;Stripe&lt;/div&gt;" style="shape=umlActor;verticalLabelPosition=bottom;verticalAlign=top;html=1;outlineConnect=0;" vertex="1" parent="1">
          <mxGeometry x="1369" y="2360.0000000000005" width="30" height="60" as="geometry" />
        </mxCell>
        <mxCell id="YOUpktUxaB1BnOb7g7wJ-352" value="&lt;div&gt;BDD&lt;/div&gt;" style="shape=umlActor;verticalLabelPosition=bottom;verticalAlign=top;html=1;outlineConnect=0;" vertex="1" parent="1">
          <mxGeometry x="1350" y="2500.0000000000005" width="30" height="60" as="geometry" />
        </mxCell>
        <mxCell id="YOUpktUxaB1BnOb7g7wJ-353" style="rounded=0;orthogonalLoop=1;jettySize=auto;html=1;entryX=1;entryY=0.5;entryDx=0;entryDy=0;endArrow=none;startFill=0;exitX=0;exitY=0.3333333333333333;exitDx=0;exitDy=0;exitPerimeter=0;" edge="1" parent="1" source="YOUpktUxaB1BnOb7g7wJ-352" target="YOUpktUxaB1BnOb7g7wJ-343">
          <mxGeometry relative="1" as="geometry" />
        </mxCell>
        <mxCell id="YOUpktUxaB1BnOb7g7wJ-354" style="rounded=0;orthogonalLoop=1;jettySize=auto;html=1;endArrow=none;startFill=0;exitX=0;exitY=0.3333333333333333;exitDx=0;exitDy=0;exitPerimeter=0;entryX=1;entryY=0.5;entryDx=0;entryDy=0;" edge="1" parent="1" source="YOUpktUxaB1BnOb7g7wJ-352" target="YOUpktUxaB1BnOb7g7wJ-349">
          <mxGeometry relative="1" as="geometry" />
        </mxCell>
        <mxCell id="YOUpktUxaB1BnOb7g7wJ-355" style="rounded=0;orthogonalLoop=1;jettySize=auto;html=1;entryX=1;entryY=0.5;entryDx=0;entryDy=0;dashed=1;" edge="1" parent="1" source="YOUpktUxaB1BnOb7g7wJ-357" target="YOUpktUxaB1BnOb7g7wJ-184">
          <mxGeometry relative="1" as="geometry" />
        </mxCell>
        <mxCell id="YOUpktUxaB1BnOb7g7wJ-356" value="Extends" style="edgeLabel;html=1;align=center;verticalAlign=middle;resizable=0;points=[];" vertex="1" connectable="0" parent="YOUpktUxaB1BnOb7g7wJ-355">
          <mxGeometry x="0.0281" y="4" relative="1" as="geometry">
            <mxPoint as="offset" />
          </mxGeometry>
        </mxCell>
        <mxCell id="YOUpktUxaB1BnOb7g7wJ-357" value="See comments" style="ellipse;whiteSpace=wrap;html=1;fillColor=#fff2cc;strokeColor=#d6b656;" vertex="1" parent="1">
          <mxGeometry x="484" y="1120" width="85" height="38.64" as="geometry" />
        </mxCell>
        <mxCell id="YOUpktUxaB1BnOb7g7wJ-358" style="rounded=0;orthogonalLoop=1;jettySize=auto;html=1;entryX=0;entryY=0.5;entryDx=0;entryDy=0;endArrow=none;startFill=0;" edge="1" parent="1" target="YOUpktUxaB1BnOb7g7wJ-357">
          <mxGeometry relative="1" as="geometry">
            <mxPoint x="73" y="1300" as="sourcePoint" />
          </mxGeometry>
        </mxCell>
        <mxCell id="YOUpktUxaB1BnOb7g7wJ-359" value="&lt;font style=&quot;font-size: 20px;&quot;&gt;Login&lt;/font&gt;" style="text;html=1;align=center;verticalAlign=middle;whiteSpace=wrap;rounded=0;" vertex="1" parent="1">
          <mxGeometry x="336" y="480" width="104" height="30" as="geometry" />
        </mxCell>
        <mxCell id="YOUpktUxaB1BnOb7g7wJ-360" value="&lt;font style=&quot;font-size: 20px;&quot;&gt;Main features&lt;/font&gt;" style="text;html=1;align=center;verticalAlign=middle;whiteSpace=wrap;rounded=0;" vertex="1" parent="1">
          <mxGeometry x="786" y="80" width="104" height="30" as="geometry" />
        </mxCell>
        <mxCell id="YOUpktUxaB1BnOb7g7wJ-361" value="&lt;font style=&quot;font-size: 20px;&quot;&gt;Sign up&lt;/font&gt;" style="text;html=1;align=center;verticalAlign=middle;whiteSpace=wrap;rounded=0;" vertex="1" parent="1">
          <mxGeometry x="1052.5" y="470" width="104" height="30" as="geometry" />
        </mxCell>
        <mxCell id="YOUpktUxaB1BnOb7g7wJ-362" value="&lt;span style=&quot;font-size: 20px;&quot;&gt;Training&lt;/span&gt;" style="text;html=1;align=center;verticalAlign=middle;whiteSpace=wrap;rounded=0;" vertex="1" parent="1">
          <mxGeometry x="1086.5" y="1090" width="104" height="30" as="geometry" />
        </mxCell>
        <mxCell id="YOUpktUxaB1BnOb7g7wJ-363" value="&lt;span style=&quot;font-size: 20px;&quot;&gt;Lesson&lt;/span&gt;" style="text;html=1;align=center;verticalAlign=middle;whiteSpace=wrap;rounded=0;" vertex="1" parent="1">
          <mxGeometry x="345.5" y="1030" width="104" height="30" as="geometry" />
        </mxCell>
        <mxCell id="YOUpktUxaB1BnOb7g7wJ-364" value="&lt;span style=&quot;font-size: 20px;&quot;&gt;Lesson Creation&lt;/span&gt;" style="text;html=1;align=center;verticalAlign=middle;whiteSpace=wrap;rounded=0;" vertex="1" parent="1">
          <mxGeometry x="326.5" y="1774.3600000000001" width="104" height="30" as="geometry" />
        </mxCell>
        <mxCell id="YOUpktUxaB1BnOb7g7wJ-365" value="&lt;span style=&quot;font-size: 20px;&quot;&gt;Life buying&lt;/span&gt;" style="text;html=1;align=center;verticalAlign=middle;whiteSpace=wrap;rounded=0;" vertex="1" parent="1">
          <mxGeometry x="1097.5" y="1849.3200000000002" width="104" height="30" as="geometry" />
        </mxCell>
        <mxCell id="YOUpktUxaB1BnOb7g7wJ-366" value="&lt;span style=&quot;font-size: 20px;&quot;&gt;Currency Usage&lt;/span&gt;" style="text;html=1;align=center;verticalAlign=middle;whiteSpace=wrap;rounded=0;" vertex="1" parent="1">
          <mxGeometry x="1107.5" y="2300" width="104" height="30" as="geometry" />
        </mxCell>
      </root>
    </mxGraphModel>
  </diagram>
</mxfile>
